<svg width="612.1" height="325.7" viewBox="0 0 612.1 325.7" xmlns="http://www.w3.org/2000/svg" xmlns:xlink="http://www.w3.org/1999/xlink" overflow="hidden"><defs></defs><g><linearGradient x1="0" y1="141.299" x2="609.162" y2="141.299" gradientUnits="userSpaceOnUse" id="SVGID_1_"><stop offset="0" stop-color="#FFCF96"/><stop offset="1" stop-color="#FFAA40"/></linearGradient><radialGradient cx="291.176" cy="139.094" r="196.758" gradientUnits="userSpaceOnUse" id="SVGID_2_"><stop offset="0" stop-color="#A76BDF"/><stop offset="1" stop-color="#7400B9"/></radialGradient><path d="M39.4 191.4C26.3 193.2 13.2 195 0.1 196.8 0.1 196.8 0.1 196.8 1.41553e-15 196.8L1.41553e-15 219.7C1.41553e-15 220.9 0.1 222.2 0.2 223.4 4.9 223.2 9.6 222.7 14.1 222.3 33.5 220.6 53 221.1 72.2 223.7 51.5 226.5 30.7 229.4 9.9 227.7 6.8 227.5 3.7 227.1 0.6 226.8 4 245.3 20.1 259.3 39.5 259.3L358.5 259.3C364.5 259.3 369.3 264.1 369.3 270.1L369.3 291C378.1 291 387 291.1 395.8 291.4 386.8 292.7 378 294.7 369.3 297.4L369.3 314.9C369.3 323.2 378.3 328.4 385.5 324.3L506.7 253.9C504.7 252.2 502.4 250.8 499.9 249.9 493.2 247.5 485.9 248.1 478.8 248.8 493.2 244.4 508.5 243.8 523.9 243.9L566.1 219.9C559.8 215.4 565.5 215.1 544 215.2 573.2 207.3 560.7 207.4 590.8 205.7L599.5 200.8C612 193.6 617.1 136.8 604.7 129.6L583.8 159C570.2 161.1 556.5 163.2 542.9 165.3 554.4 163.5 565.7 159.9 576.2 154.6L480.9 99.6C467.7 100 454.6 100.8 441.4 101.5 452.5 100.3 463.6 98.4 474.6 96L453.9 84C434.6 84.4 415.4 84.9 396.1 85.3 409.4 82.8 423.5 79.8 435.1 73.2L385.8 44.7C378.6 40.5 369.6 45.7 369.6 54.1L369.6 98.8C369.6 104.8 364.8 109.6 358.8 109.6L39.8 109.6C17.7 109.5 0 127.2 0 149.1L0 183.3C13.3 185.2 26.4 188.2 39.4 191.4Z" fill="#D16708"/><path d="M39.4 148.3C26.3 150.1 13.2 151.9 0.1 153.7 0.1 153.7 0.1 153.7 1.41553e-15 153.7L1.41553e-15 176.6C1.41553e-15 177.8 0.1 179.1 0.2 180.3 4.9 180.1 9.6 179.6 14.1 179.2 33.5 177.5 53 178 72.2 180.6 51.5 183.4 30.7 186.3 9.9 184.6 6.8 184.4 3.7 184 0.6 183.7 4 202.2 20.1 216.2 39.5 216.2L358.5 216.2C364.5 216.2 369.3 221 369.3 227L369.3 247.9C378.1 247.9 387 248 395.8 248.3 386.8 249.6 378 251.6 369.3 254.3L369.3 271.8C369.3 280.1 378.3 285.3 385.5 281.2L457.9 239.4C455.9 237.7 453.6 236.3 451.1 235.4 444.4 233 437.1 233.6 430 234.3 444.4 229.9 459.7 229.3 475.1 229.4L528.5 198.6C507 198.7 485.5 198.7 464 198.8 493.2 190.9 523.1 186.1 553.2 184.4L599.6 157.6C612.1 150.4 612.1 132.4 599.6 125.2L583.6 116C570 118.1 556.3 120.2 542.7 122.3 554.2 120.5 565.5 116.9 576 111.6L480.7 56.6C467.5 57 454.4 57.8 441.2 58.5 452.3 57.3 463.4 55.4 474.4 53L453.7 41C434.4 41.4 415.2 41.9 395.9 42.3 409.2 39.8 423.3 36.8 434.9 30.2L385.7 1.5C378.5-2.7 369.5 2.5 369.5 10.9L369.5 55.6C369.5 61.6 364.7 66.4 358.7 66.4L39.7 66.4C17.7 66.4 0 84.1 0 106L0 140.2C13.3 142.1 26.4 145 39.4 148.3Z" fill="url(#SVGID_1_)"/><path d="M599.8 125.1 583.8 115.9C570.2 118 556.5 120.1 542.9 122.2 554.4 120.4 565.7 116.8 576.2 111.5L505 70.4C497.7 70.8 490.4 71.2 483.2 71.6 344 78.9 204.4 64 65.2 71.5 46.8 72.5 28 74 10.5 79 4 86.1 0 95.6 0 106L0 118.7C11 121.8 23.4 121.4 35.1 120.8 196 112.8 358.2 110.8 517.3 135.9 527.7 137.5 538.7 139.6 546.1 147 549.5 150.4 551.8 155.9 549.1 159.8 547 162.8 543 163.4 539.4 163.8 511.5 166.6 483.4 166.3 455.3 166.1 343.7 165 232 163.9 120.5 158.7 80.5 156.8 39.6 154.6-1.7053e-13 159.1L-1.7053e-13 176.8C-1.7053e-13 178 0.1 179.3 0.2 180.5 4.9 180.3 9.6 179.8 14.1 179.4 33.5 177.7 53 178.2 72.2 180.8 51.5 183.6 30.7 186.5 9.9 184.8 6.8 184.6 3.7 184.2 0.6 183.9 2.6 195.1 9.4 204.7 18.8 210.5 114.5 203.1 210.4 198.8 306.3 197.6 327 197.3 347.8 197.2 368.3 199.9 381.2 201.6 393.9 204.4 406.2 208.3 408.2 208.9 410.4 209.8 411.3 211.6 412.8 214.7 410 218.1 407.2 220 396.3 227.5 382.8 228.9 369.4 229.3L369.4 248C378.2 248 387.1 248.1 395.9 248.4 386.9 249.7 378.1 251.7 369.4 254.4L369.4 271.9C369.4 280.2 378.4 285.4 385.6 281.3L448.1 245.2C442.1 242.9 436.9 239.4 434.7 234 433.2 234.1 431.6 234.2 430.1 234.4 431.5 234 433 233.6 434.4 233.2 434.1 232.4 433.9 231.6 433.8 230.7 432.8 224.3 436.3 218.1 440.6 213.3 454.6 197.7 475.4 193.1 496.9 191.3 515.5 187.8 534.4 185.5 553.3 184.4L599.7 157.6C612.3 150.3 612.3 132.3 599.8 125.1Z" fill="#FFE5C7" opacity="0.36"/><g><path d="M206.8 113.4C198.1 115.3 189.4 117.2 180.7 119.1 173.7 120.6 166.6 122.1 159.5 121.2 156 120.7 152.6 119.6 149.1 119.1 145.5 118.5 141.9 118.5 138.2 118.5 132.7 118.5 127.2 118.5 121.7 118.5 120.2 118.5 118.7 118.5 117.2 118.3 115.5 118 114 117.5 112.4 117 100.1 112.7 86.9 107.5 74.3 110.8 83.8 108.7 93.7 108.9 103.4 109.1 115.6 109.3 127.8 109.6 140 109.8 148.1 110 156.2 110.1 164.3 110.7 171.2 111.2 178.2 112 185.2 111.9 190.9 111.8 196.6 111.1 202.2 110.4 206.9 109.8 211.6 109.2 216.4 108.6 219 108.3 227.5 105.9 229.2 107.6 222.7 110.9 213.9 111.9 206.8 113.4Z" fill="#FFE5C7"/><path d="M136.3 106.8C168.2 109.2 200.3 107 232.3 104.9 205.5 112.5 177.5 113.9 149.7 115.3 144.3 115.6 138.8 115.9 133.4 115.4 128.7 115 124.1 114.1 119.5 113.2 112 111.7 104.5 110 96.9 109 92.5 108.4 79.2 109.9 76.5 107 94.8 100.5 117.5 105.4 136.3 106.8Z" fill="#D16708"/></g><g><path d="M315.8 171C306.6 178.8 295.1 184.7 283 184.4 279 184.3 274.9 183.5 270.9 183.4 264.1 183.2 257.4 185 250.8 186.7 248.2 187.4 245.6 188 242.9 188 240.4 188 237.9 187.4 235.5 186.7 221.9 182.8 209.2 175.6 195.2 173.8 199.2 173.1 203.2 172.4 207.2 171.6 211.3 170.9 215.5 170.1 219.6 170.5 222.6 170.8 225.4 171.7 228.3 172.4 242.6 176 257.5 176.2 272.2 176.3 279.6 176.4 287 176.4 294.3 175.4 301.6 174.4 308.5 170.4 315.8 171Z" fill="#FFE5C7"/><path d="M221.4 170.1C228.9 170.6 236.2 172.3 243.7 173.4 267.4 176.8 291.4 173.7 315.1 170.7 287.8 177.6 259.3 184.5 231.8 178.3 224.2 176.6 216.8 173.9 209.1 173.6 205.5 173.5 201.8 174.7 198.3 174.5 194.3 174.3 193.6 173.8 197.7 172 204.3 169.2 214.4 169.6 221.4 170.1Z" fill="#D16708"/></g><g><path d="M489 141.6C476.5 151.1 460.5 154.5 445 157 436.8 158.4 428.6 159.6 420.3 160.3 415.4 160.7 410.4 160.9 405.6 160.1 402.1 159.5 398.8 158.4 395.4 157.4 391.9 156.4 388.3 155.7 384.8 155 364 150.8 342.9 146.6 321.7 146.6 334.4 146.9 347 143.7 359.8 143.5 370 143.3 380 145.1 390.1 146.3 403.9 147.9 417.9 148.4 431.8 147.8 444.8 147.2 457.4 145 470.2 143.5 476.3 142.8 482.7 142.3 489 141.6Z" fill="#FFE5C7"/><path d="M383.2 141.7C389.8 142.7 396.3 144.7 403 145.4 414.3 146.7 425.6 144.4 436.9 143.1 453.6 141.2 470.4 141.5 487.2 141.8 463.1 149 437.8 151.9 412.7 152 403.4 152 394.1 151.7 384.9 150.1 377.6 148.8 370.4 146.7 363 146 349.4 144.7 335.3 146.8 321.6 146.7 342.1 145.4 362.6 138.6 383.2 141.7Z" fill="#D16708"/></g><g><path d="M369.9 245.5C374.6 237.5 379.1 227.5 374.4 219.4 370.1 212 360.3 210.3 351.7 209.7 287.9 205.2 223.9 213.4 160.1 210.6 133.3 209.4 106.4 206.3 79.7 208.7 67.9 209.8 55.9 211.9 44.1 210.4 32.3 208.9 20.2 203 15.2 192.2 32.2 190.9 49.1 187.3 65.2 181.6 57 182.7 48.7 183.7 40.5 184.4L34.1 185.4C33.7 185.2 33.2 185.1 32.8 184.9 25.2 185.3 17.6 185.3 10 184.7 6.9 184.5 3.8 184.1 0.7 183.8 4.1 202.3 20.2 216.3 39.6 216.3L358.6 216.3C364.6 216.3 369.4 221.1 369.4 227.1L369.4 246.3C369.6 246 369.7 245.7 369.9 245.5Z" fill="#FFE5C7"/><path d="M68.9 180.2C69 180.2 69.1 180.1 69.3 180.1L68.6 180.2C68.7 180.2 68.8 180.2 68.9 180.2Z" fill="#FFE5C7"/></g><g><path d="M437.5 232.3C436.9 232.4 436.4 232.5 435.9 232.7 436.4 232.6 437 232.5 437.5 232.3Z" fill="#FFE5C7"/><path d="M369.4 247.9C377.1 247.9 384.8 248 392.5 248.2 392.8 248 393.1 247.7 393.3 247.4L369.4 247.9 369.4 247.9Z" fill="#FFE5C7"/><path d="M458 239.4C456 237.7 453.7 236.3 451.2 235.4 445.4 233.4 439.2 233.5 433.1 234 432.7 234.3 432.3 234.5 432 234.9 435.7 234.4 440.1 234.3 442.3 237.3 444.5 240.4 442.6 244.9 439.6 247.1 436.5 249.3 432.7 250 429.1 251.2 414.2 256.3 403.8 271.4 388.4 274.7 386.5 275.1 384.6 275.3 382.8 275.1 379.4 274.8 376.2 273.1 374 270.5 372.7 268.9 371.7 267 371.6 265 371.3 260.1 375.8 256.2 380.3 254.1 384.1 252.4 388.3 251.2 391.6 248.8 384.1 250.1 376.7 251.8 369.4 254.1L369.4 271.6C369.4 279.9 378.4 285.1 385.6 281L458 239.4Z" fill="#FFE5C7"/></g><path d="M488.4 212.1C481.3 215.1 475.8 221.8 474 229.3 474.4 229.3 474.9 229.3 475.3 229.3L528.7 198.5C507.8 198.5 486.9 198.6 466.1 198.6 478.3 200.7 490.6 202.2 503 203.1 500.8 208.7 493.8 209.8 488.4 212.1Z" fill="#FFE5C7"/><g><path d="M599.8 157.5C612.3 150.3 612.3 132.3 599.8 125.1L583.8 115.9C576.4 117 569 118.2 561.7 119.3 566.2 119 570.8 119.1 575.3 119.9 583.9 121.4 592.2 125.8 596.9 133.1 598.3 135.3 599.5 138 599 140.6 598.2 144.9 593.5 147.1 589.4 148.5 582.7 150.8 575.7 152.5 568.6 152.8 576 152.7 583.5 153.1 590.8 154.1 583.7 160.5 575.7 165.8 567 169.8 564.1 171.1 561.1 172.3 558.8 174.4 555.9 177 554.2 180.6 553 184.3 553.1 184.3 553.3 184.3 553.4 184.3L599.8 157.5Z" fill="#FFE5C7"/><path d="M572.3 113.3 549.6 120.9C557.4 119.2 565 116.6 572.3 113.3Z" fill="#FFE5C7"/></g><g><path d="M477.6 66.8C479.2 67.9 480.7 69.2 482.5 70 485.3 71.4 488.5 71.6 491.6 71.9 496.6 72.4 501.7 73.3 506.1 75.7 510.9 78.3 514.5 82.5 518.9 85.7 521.7 87.7 524.8 89.4 527.9 90.9 543.3 98.7 559.3 105.4 575.6 111L480.9 56.3C469.5 56.7 458.1 57.3 446.7 57.9L444.7 58.3C456.2 56.9 468.2 59.9 477.6 66.8Z" fill="#FFE5C7"/><path d="M467.9 54.2 455.3 56.5C459.5 55.8 463.7 55 467.9 54.2Z" fill="#FFE5C7"/></g><path d="M397.3 42.1C402.7 44.3 408.6 44.5 414.4 44.7 420.2 44.9 426 45.1 431.8 44.7 435 44.5 438.3 44 441.5 44.1 444.4 44.2 447.3 44.9 450.2 45.5 458.2 47.4 466.1 49.6 473.8 52.3L453.8 40.7C435 41.2 416.2 41.6 397.3 42.1Z" fill="#FFE5C7"/><path d="M0.9 180.3C0.3 176.7-0.1 173 0.5 169.4 1.2 164.9 3.5 160.4 7.6 158.4 9.3 157.5 11.3 157.1 13.2 156.7 21.7 154.8 30.1 152.1 38 148.6L37.9 148.6C25.3 150.3 12.7 152 0.1 153.8 0.1 153.8 0.1 153.8 1.41553e-15 153.8L1.41553e-15 176.7C1.41553e-15 177.9 0.1 179.2 0.2 180.4 0.4 180.3 0.6 180.3 0.9 180.3Z" fill="#FFE5C7"/><g><path d="M396.2 55.5C397.1 55.6 398 55.6 398.9 55.7 398 55.6 397.1 55.5 396.2 55.5Z" fill="#FFE5C7"/><path d="M0 139.4 0 140.2C0.1 140.2 0.2 140.2 0.3 140.3 0.2 139.9 0.1 139.6 0 139.4Z" fill="#FFE5C7"/><path d="M396.2 55.5C388.7 54.9 381.3 54.3 373.8 53.8 378.9 40.2 367.7 23.7 374.8 11 375.8 9.3 377.2 7.7 379.1 7.2 381.6 6.6 384 8.1 386.1 9.5 400 18.6 415.7 25 432 28.2L385.7 1.5C378.5-2.7 369.5 2.5 369.5 10.9L369.5 55.6C369.5 61.6 364.7 66.4 358.7 66.4L39.7 66.4C17.7 66.4 0 84.1 0 106L0 130.6C1.6 125.6 5.5 121 10.3 118.7 18.3 114.7 27.7 115.2 36.6 115.7 31.7 113.4 26 114.6 20.5 115 15.1 115.3 8.6 113.9 6.5 108.9 3.3 101.2 13.1 94.5 21.3 93 23.8 83.9 31.9 77.2 40.8 74.1 49.7 71 59.3 70.9 68.7 71.3 98.4 72.5 128 77.6 157.7 75.2 171.3 74.1 184.8 71.5 198.4 70.6 209 69.9 219.6 70.3 230.2 70.6 264.9 71.8 299.7 72.9 334.4 74.1 345.2 74.5 356.6 74.7 366.4 70.1 376.5 65.3 385.5 55.5 396.2 55.5Z" fill="#FFE5C7"/></g><path d="M30.9 112.9C28.6 135.1 27 159.7 40.6 177.5 58.1 200.4 91.9 200.8 120.6 199.1 190.4 194.9 260.2 190.8 330 186.6 349.7 185.4 373.3 186.1 384.1 202.6 389.7 211.1 390.7 222.8 398.6 229.2 410.4 238.7 427.6 230.3 440.1 221.9 470.5 201.6 500.8 181.2 531.2 160.9 542.9 153 556.2 141 552 127.6 549.2 118.8 540 114 531.6 110.2 484 88.4 436.2 66.6 388.4 44.8 394.4 57.7 385.5 73.6 372.9 80.3 360.3 87 345.4 86.9 331.1 86.7 270.7 85.7 210.4 84.6 150 83.6 121.8 83.1 93.1 84.1 65 81.3 42 79 33.5 87.6 30.9 112.9Z" fill="url(#SVGID_2_)"/><path d="M539.5 134.3C540.4 125.9 502.9 131.4 495.5 137.4 488.1 143.4 480 168.3 489.2 171.3 493.4 172.6 538.5 142.8 539.5 134.3Z" fill="#FFFFFF"/><path d="M60.2 93C55.3 98.2 83.5 112.3 91.5 113.6 117.8 117.6 117.8 100.7 113.1 94 111 90.8 65.2 87.7 60.2 93Z" fill="#FFFFFF"/><path d="M42.5 139.5C50 141.8 59 138.1 59.6 134.1 60.4 128.9 47.8 109 44 112.9 42.3 114.7 37.9 138.1 42.5 139.5Z" fill="#FFFFFF"/></g></svg>