<svg width="384.4" height="287.28" viewBox="0 0 384.4 287.28" xmlns="http://www.w3.org/2000/svg" xmlns:xlink="http://www.w3.org/1999/xlink" overflow="hidden"><defs></defs><g><path d="M2.06 11.36C2.06 11.36 0.72 15.92 5.07 18.15 9.41 20.38 9.41 20.38 9.41 20.38L10.52 22.83 11.19 21.94 12.64 22.83 13.2 22.05C13.2 22.05 17.21 23.72 26 24.72 34.8 25.72 37.25 26.17 37.25 26.17 37.25 26.17 38.92 27.62 38.92 30.51 38.92 33.41 38.59 35.3 38.92 35.3 39.25 35.3 39.48 32.29 39.92 30.4 40.37 28.51 42.37 26.17 42.37 26.17 42.37 26.17 56.18 26.06 59.63 25.61 63.08 25.17 63.75 26.28 65.09 26.17 66.43 26.06 68.65 25.39 69.77 25.39 70.88 25.39 72.11 25.17 73.78 25.17 75.45 25.17 79.35 25.84 79.35 25.84 79.35 25.84 80.02 25.17 83.25 24.5 86.48 23.83 109.41 21.94 114.09 20.71 118.77 19.49 119.43 19.37 120.32 21.27 121.21 23.16 123.32 31.4 123.21 29.95 123.1 28.5 123.1 23.05 122.77 22.49 122.44 21.93 121.99 21.27 122.66 20.6 123.33 19.93 124.33 19.26 124.33 19.26 124.33 19.26 132.9 17.81 138.58 16.81 144.26 15.81 142.25 17.59 143.81 17.37 145.37 17.15 154.94 15.03 154.94 15.03 154.94 15.03 154.27 17.03 154.94 17.03 155.61 17.03 160.62 16.14 160.62 15.81 160.62 15.48 160.17 14.14 160.62 14.03 161.06 13.92 172.64 13.36 176.87 12.47 181.1 11.58 181.1 13.14 181.1 13.14 181.1 13.14 184.11 13.59 184.44 13.25 184.77 12.92 186.55 11.36 186.55 11.36 186.55 11.36 200.58 10.36 217.95 8.36 235.32 6.36 237.1 5.91 238.21 6.36 239.32 6.81 239.66 7.47 240.1 8.03 240.55 8.59 241.77 9.14 241.77 9.14L244.67 6.2C244.67 6.2 262.6 5.91 265.49 5.47 268.38 5.02 269.16 5.8 269.16 6.14 269.16 6.47 270.83 19.5 270.94 17.16 271.05 14.82 271.5 11.15 271.83 9.37 272.16 7.59 272.61 7.14 273.17 6.36 273.73 5.58 274.17 5.33 274.17 5.33 274.17 5.33 289.2 4.3 289.42 5.33 289.64 6.36 291.42 6.24 291.98 6.36 292.54 6.47 293.32 7.14 294.1 6.47 294.88 5.8 297.44 4.88 297.44 4.88 297.44 4.88 306.35 4.51 315.36 4.88 324.38 5.25 344.42 5.14 344.42 5.8 344.42 6.46 344.64 10.03 344.42 10.7 344.2 11.37 344.64 12.15 345.2 10.25 345.76 8.36 346.31 7.24 346.65 6.8 346.98 6.35 348.88 6.35 352.11 6.58 355.34 6.8 366.7 9.7 367.03 9.92 367.36 10.14 367.7 13.71 368.25 12.93 368.81 12.15 368.92 10.7 369.7 10.48 370.48 10.26 371.48 10.15 371.48 10.15 371.48 10.15 384.06 12.93 384.4 18.28 384.4 18.28 351.24 123.65 353.01 177.73 354.78 231.81 353.01 254.42 353.01 254.42 353.01 254.42 335.43 259.5 320.71 257.09 305.99 254.68 295.14 253.65 295.14 253.39 295.14 253.13 296.35 249.08 295.74 245.04 295.14 240.99 294.97 233.93 294.62 235.05 294.28 236.17 293.5 239.18 293.84 240.69 294.18 242.2 293.84 247.2 292.98 248.83 292.12 250.46 289.97 253.31 289.97 253.31 289.97 253.31 271.89 251.59 252.6 252.02 233.31 252.45 208.86 253.66 202.66 254.35 196.46 255.04 185.27 255.64 185.27 255.64 185.27 255.64 182.77 252.28 183.2 246.6 183.63 240.92 184.23 234.89 183.46 236.44 182.69 237.99 181.91 244.36 181.22 247.46 180.53 250.56 179.58 254.86 179.33 255.47 179.07 256.07 176.32 256.33 176.32 256.33 176.32 256.33 177.27 254.61 177.01 254.61 176.75 254.61 172.53 255.38 172.53 255.38 172.53 255.38 170.98 256.68 167.19 257.75 163.4 258.82 155.13 259.51 153.07 259.77 151 260.03 145.41 257.62 145.15 258.05 144.89 258.48 146.18 258.86 143.69 259.79 141.19 260.72 138.27 260.55 137.49 261.15 136.72 261.75 114.76 265.97 112.52 266.23 110.28 266.49 108.47 264.94 108.47 263.3 108.47 261.66 108.56 255.12 107.78 256.15 107.01 257.18 106.32 260.37 105.28 263.13 104.25 265.88 103.47 267.43 101.06 267.87 98.65 268.3 92.19 268.64 92.19 268.64 92.19 268.64 81.08 270.62 72.99 271.31 64.9 272 58.27 271.48 56.11 272.17 53.96 272.86 36.91 273.46 32.69 272.17 28.47 270.88 12.89 271.65 7.29 263.56 7.29 263.56 5.69 237.59 9.68 182.18 13.67 126.77 9.68 91.75 5.47 72.91 1.26 54.07-2.44 16.11 2.06 11.36Z" fill="#F6DCBD"/><path d="M2.06 12.16C2.06 12.16 0.72 16.72 5.07 18.95 9.41 21.18 9.41 21.18 9.41 21.18L10.52 23.63 11.19 22.74 12.64 23.63 13.2 22.85C13.2 22.85 17.21 24.52 26 25.52 34.8 26.52 37.25 26.97 37.25 26.97 37.25 26.97 38.92 28.42 38.92 31.31 38.92 34.21 38.59 36.1 38.92 36.1 39.25 36.1 39.48 33.09 39.92 31.2 40.37 29.31 42.37 26.97 42.37 26.97 42.37 26.97 56.18 26.86 59.63 26.41 63.08 25.97 63.75 27.08 65.09 26.97 66.43 26.86 68.65 26.19 69.77 26.19 70.88 26.19 72.11 25.97 73.78 25.97 75.45 25.97 79.35 26.64 79.35 26.64 79.35 26.64 80.02 25.97 83.25 25.3 86.48 24.63 109.41 22.74 114.09 21.51 118.77 20.28 119.43 20.17 120.32 22.07 121.21 23.96 123.32 32.2 123.21 30.75 123.1 29.3 123.1 23.85 122.77 23.29 122.44 22.73 121.99 22.07 122.66 21.4 123.33 20.73 124.33 20.06 124.33 20.06 124.33 20.06 132.9 18.61 138.58 17.61 144.26 16.61 142.25 18.39 143.81 18.17 145.37 17.95 154.94 15.83 154.94 15.83 154.94 15.83 154.27 17.83 154.94 17.83 155.61 17.83 160.62 16.94 160.62 16.61 160.62 16.28 160.17 14.94 160.62 14.83 161.06 14.72 172.64 14.16 176.87 13.27 181.1 12.38 181.1 13.94 181.1 13.94 181.1 13.94 184.11 14.39 184.44 14.05 184.77 13.72 186.55 12.16 186.55 12.16 186.55 12.16 200.58 11.16 217.95 9.16 235.32 7.16 237.1 6.71 238.21 7.16 239.32 7.61 239.66 8.27 240.1 8.83 240.55 9.39 241.77 9.94 241.77 9.94L244.67 7C244.67 7 262.6 6.71 265.49 6.27 268.38 5.82 269.16 6.6 269.16 6.94 269.16 7.27 270.83 20.3 270.94 17.96 271.05 15.62 271.5 11.95 271.83 10.17 272.16 8.39 272.61 7.94 273.17 7.16 273.73 6.38 274.17 6.14 274.17 6.14 274.17 6.14 289.2 5.11 289.42 6.14 289.64 7.16 291.42 7.05 291.98 7.16 292.54 7.27 293.32 7.94 294.1 7.27 294.88 6.6 297.44 5.68 297.44 5.68 297.44 5.68 306.35 5.31 315.36 5.68 324.38 6.05 344.42 5.94 344.42 6.6 344.42 7.27 344.64 10.83 344.42 11.5 344.2 12.17 344.64 12.95 345.2 11.05 345.76 9.16 346.31 8.04 346.65 7.6 346.98 7.15 348.88 7.15 352.11 7.38 355.34 7.6 366.7 10.5 367.03 10.72 367.36 10.94 367.7 14.51 368.25 13.73 368.81 12.95 368.92 11.5 369.7 11.28 370.48 11.06 371.48 10.95 371.48 10.95 371.48 10.95 384.06 13.73 384.4 19.08 384.4 19.08 351.24 124.45 353.01 178.53 354.78 232.61 353.01 255.22 353.01 255.22 353.01 255.22 335.43 260.3 320.71 257.88 305.99 255.47 295.14 254.44 295.14 254.18 295.14 253.92 296.35 249.87 295.74 245.83 295.14 241.78 294.97 234.72 294.62 235.84 294.28 236.96 293.5 239.97 293.84 241.48 294.18 242.99 293.84 247.99 292.98 249.62 292.12 251.26 289.97 254.1 289.97 254.1 289.97 254.1 271.89 252.38 252.6 252.81 233.31 253.24 208.86 254.45 202.66 255.13 196.46 255.82 185.27 256.42 185.27 256.42 185.27 256.42 182.77 253.06 183.2 247.38 183.63 241.7 184.23 235.67 183.46 237.22 182.69 238.77 181.91 245.14 181.22 248.24 180.53 251.34 179.58 255.65 179.33 256.25 179.07 256.85 176.32 257.11 176.32 257.11 176.32 257.11 177.27 255.39 177.01 255.39 176.75 255.39 172.53 256.16 172.53 256.16 172.53 256.16 170.98 257.46 167.19 258.53 163.4 259.6 155.13 260.29 153.07 260.55 151 260.81 145.41 258.4 145.15 258.83 144.89 259.26 146.18 259.64 143.69 260.57 141.19 261.5 138.27 261.33 137.49 261.93 136.72 262.53 114.76 266.75 112.52 267.01 110.28 267.27 108.47 265.72 108.47 264.08 108.47 262.44 108.56 255.9 107.78 256.93 107.01 257.96 106.32 261.15 105.28 263.91 104.25 266.67 103.47 268.22 101.06 268.65 98.65 269.08 92.19 269.42 92.19 269.42 92.19 269.42 81.08 271.4 72.99 272.09 64.9 272.78 58.27 272.26 56.11 272.95 53.96 273.64 36.91 274.24 32.69 272.95 28.47 271.66 12.89 272.43 7.29 264.34 7.29 264.34 5.69 238.37 9.68 182.96 13.67 127.55 9.68 92.53 5.47 73.69 1.24 54.84-2.44 16.91 2.06 12.16Z" fill="#ECB672"/><path d="M5.06 18.95C9.4 21.18 9.4 21.18 9.4 21.18L10.51 23.63 11.18 22.74 12.63 23.63 13.19 22.85C13.19 22.85 17.2 24.52 25.99 25.52 34.79 26.52 37.24 26.97 37.24 26.97 37.24 26.97 38.91 28.42 38.91 31.31 38.91 34.21 38.58 36.1 38.91 36.1 39.24 36.1 39.47 33.09 39.91 31.2 40.36 29.31 42.36 26.97 42.36 26.97 42.36 26.97 56.17 26.86 59.62 26.41 63.07 25.97 63.74 27.08 65.08 26.97 66.42 26.86 68.64 26.19 69.76 26.19 70.87 26.19 72.1 25.97 73.77 25.97 75.44 25.97 79.34 26.64 79.34 26.64 79.34 26.64 80.01 25.97 83.24 25.3 83.35 25.28 83.5 25.25 83.66 25.22 83.58 23.6 83.54 21.55 83.69 19.62 83.99 15.53 84.29 13.23 84.89 9.74 85.49 6.25 76.31 3.35 74.91 2.85 73.51 2.35 71.22 2.25 70.82 2.45 70.42 2.65 69.92 4.35 70.22 5.51 70.52 6.67 68.22 7.34 68.22 7.34 68.22 7.34 68.12 2.55 67.52 1.75 66.92 0.95 58.54 0.05 56.44 0.01 54.34-0.03 53.84 0.26 53.55 1.05 53.25 1.85 51.75 4.14 51.75 4.14 51.75 4.14 52.75 0.35 50.35 0.25 47.95 0.15 43.36-0.25 38.87 0.25 34.38 0.75 28.69 1.05 28.69 1.05 28.69 1.05 28.29 2.75 26.99 3.16 25.69 3.57 24.49 3.74 24.49 3.74 24.49 3.74 23.29 2.04 13.21 4.44 3.11 6.84 2.06 12.16 2.06 12.16 2.06 12.16 0.72 16.72 5.06 18.95Z" fill="#D59654"/><g><path d="M293.45 150.78C284.23 217.61 11.38 268.12 8.31 204.24 6.08 245.03 7.27 264.34 7.27 264.34 12.87 272.43 28.45 271.66 32.67 272.95 36.89 274.24 53.94 273.64 56.09 272.95 58.24 272.26 64.87 272.78 72.97 272.09 81.06 271.4 92.17 269.42 92.17 269.42 92.17 269.42 98.63 269.08 101.04 268.65 103.45 268.22 104.23 266.67 105.26 263.91 106.29 261.16 106.98 257.97 107.76 256.93 108.53 255.9 108.45 262.44 108.45 264.08 108.45 265.72 110.26 267.27 112.5 267.01 114.74 266.75 136.7 262.53 137.47 261.93 138.24 261.33 141.17 261.5 143.67 260.57 146.17 259.64 144.88 259.26 145.13 258.83 145.39 258.4 150.98 260.81 153.05 260.55 155.12 260.29 163.38 259.6 167.17 258.53 170.96 257.46 172.51 256.16 172.51 256.16 172.51 256.16 176.73 255.39 176.99 255.39 177.25 255.39 176.3 257.11 176.3 257.11 176.3 257.11 179.05 256.85 179.31 256.25 179.57 255.65 180.52 251.34 181.2 248.24 181.89 245.14 182.67 238.77 183.44 237.22 184.21 235.67 183.61 241.7 183.18 247.38 182.75 253.06 185.25 256.42 185.25 256.42 185.25 256.42 196.44 255.82 202.64 255.13 208.84 254.44 233.29 253.24 252.58 252.81 271.87 252.38 289.95 254.1 289.95 254.1 289.95 254.1 292.1 251.26 292.96 249.62 293.82 247.98 294.17 242.99 293.82 241.48 293.48 239.97 294.25 236.96 294.6 235.84 294.94 234.72 295.12 241.78 295.72 245.83 296.32 249.88 295.12 253.92 295.12 254.18 295.12 254.44 305.97 255.47 320.69 257.88 335.41 260.29 352.99 255.22 352.99 255.22 352.99 255.22 354.76 232.61 352.99 178.53 351.22 124.45 384.38 19.08 384.38 19.08 384.05 13.74 371.46 10.95 371.46 10.95 371.46 10.95 370.46 11.06 369.68 11.28 368.9 11.5 368.79 12.95 368.23 13.73 367.67 14.51 367.34 10.95 367.01 10.72 366.68 10.5 355.32 7.6 352.09 7.38 348.86 7.16 346.97 7.16 346.63 7.6 346.3 8.05 345.74 9.16 345.18 11.05 344.62 12.94 344.18 12.16 344.4 11.5 344.62 10.83 344.4 7.27 344.4 6.6 344.4 5.93 324.36 6.04 315.34 5.68 306.32 5.31 297.42 5.68 297.42 5.68 297.42 5.68 294.86 6.6 294.08 7.27 293.3 7.94 292.52 7.27 291.96 7.16 291.4 7.05 289.62 7.16 289.4 6.14 289.42 6.13 302.91 82.26 293.45 150.78Z" fill="#DDA35F"/><path d="M8.6 199.16C10.44 187.42 10.71 181.43 9.89 179.65 9.82 180.75 9.74 181.84 9.66 182.95 9.25 188.67 8.9 194.06 8.6 199.16Z" fill="#DDA35F"/></g><path d="M83.67 19.62C83.97 15.53 84.27 13.23 84.87 9.74 84.91 9.51 84.9 9.28 84.86 9.05 84.86 9.06 83.17 14.74 80.18 15.73 77.19 16.73 76.79 16.73 76.79 16.73L74.99 25.22 73.19 17.63C73.19 17.63 64.11 20.52 59.11 20.52 54.12 20.52 52.82 20.42 52.82 20.42 52.82 20.42 52.82 21.52 52.32 22.02 51.82 22.52 51.52 23.62 51.52 23.92 51.52 24.22 51.32 23.92 50.72 24.52 50.12 25.12 48.72 25.22 48.72 25.22L46.82 20.43C46.82 20.43 36.54 20.23 33.54 20.03 30.54 19.83 29.75 19.63 29.75 19.63 29.75 19.63 28.25 20.83 27.95 20.83 27.65 20.83 23.16 21.13 23.16 20.83 23.16 20.53 22.26 18.06 22.26 18.06 22.26 18.06 17.07 17.23 15.47 14.64 13.87 12.04 13.87 11.25 13.87 11.25 13.87 11.25 13.66 18.61 13.7 23.06 15.05 23.51 19 24.72 26 25.52 34.8 26.52 37.25 26.97 37.25 26.97 37.25 26.97 38.92 28.42 38.92 31.31 38.92 34.21 38.59 36.1 38.92 36.1 39.25 36.1 39.48 33.09 39.92 31.2 40.37 29.31 42.37 26.97 42.37 26.97 42.37 26.97 56.18 26.86 59.63 26.41 63.08 25.97 63.75 27.08 65.09 26.97 66.43 26.86 68.65 26.19 69.77 26.19 70.88 26.19 72.11 25.97 73.78 25.97 75.45 25.97 79.35 26.64 79.35 26.64 79.35 26.64 80.02 25.97 83.25 25.3 83.36 25.28 83.51 25.25 83.67 25.22 83.56 23.6 83.53 21.56 83.67 19.62Z" fill="#BA7E41"/><g><path d="M22.27 18.05C22.27 18.05 23.17 20.52 23.17 20.82 23.17 21.12 27.66 20.82 27.96 20.82 28.26 20.82 29.76 19.62 29.76 19.62 29.76 19.62 30.56 19.82 33.55 20.02 36.55 20.22 46.83 20.42 46.83 20.42L48.73 25.21C48.73 25.21 50.13 25.11 50.73 24.51 51.33 23.91 51.53 24.21 51.53 23.91 51.53 23.61 51.83 22.51 52.33 22.01 52.83 21.51 52.83 20.41 52.83 20.41 52.83 20.41 54.13 20.51 59.12 20.51 61.88 20.51 65.9 19.62 68.93 18.83 68.85 16.87 68.83 14.46 69.1 13.32 69.6 11.22 70.2 9.93 70.2 9.93 70.2 9.93 62.41 4.97 62.01 5.5 61.61 6.03 60.21 7.94 60.01 9.03 59.81 10.12 58.11 14.31 58.11 15.31 58.11 16.31 57.41 17.91 57.11 15.21 56.81 12.51 56.01 8.42 55.91 7.42 55.81 6.42 57.01 4.95 55.21 5.49 53.41 6.02 55.26 6.62 49.29 6.32 43.33 6.02 34.44 5.02 29.75 6.12 25.06 7.22 24.16 10.61 24.16 10.61L24.16 13.58C24.16 13.58 22.06 9.91 22.16 8.51 22.26 7.11 13.93 9.11 13.87 11.21 13.87 11.21 13.87 12.01 15.47 14.6 17.08 17.22 22.27 18.05 22.27 18.05Z" fill="#935F2D"/><path d="M66.87 26.67C66.91 26.66 66.95 26.65 66.99 26.65 66.95 26.65 66.91 26.66 66.87 26.67Z" fill="#935F2D"/><path d="M66.22 26.8C66.29 26.79 66.36 26.77 66.44 26.76 66.37 26.77 66.29 26.78 66.22 26.8Z" fill="#935F2D"/><path d="M65.62 26.9C65.67 26.89 65.73 26.88 65.79 26.87 65.73 26.88 65.67 26.89 65.62 26.9Z" fill="#935F2D"/></g><path d="M300.39 18.77C300.39 18.77 299.56 23.94 314.56 26.61 329.57 29.28 331.4 25.11 332.74 26.61 334.07 28.11 334.24 28.94 335.07 28.78 335.9 28.61 339.57 29.95 340.41 29.95 341.24 29.95 342.41 28.78 343.08 28.28 343.75 27.78 342.08 27.78 350.92 27.61 359.76 27.44 366.93 26.61 366.93 26.61 366.93 26.61 368.6 29.28 369.93 29.11 371.26 28.94 371.93 27.61 372.1 26.78 372.27 25.95 375.27 24.36 375.27 24.36 375.27 24.36 376.44 35.78 376.6 34.61 376.77 33.44 377.6 28.11 378.1 25.77 378.6 23.44 379.77 22.6 380.77 21.77 381.77 20.94 384.4 19.07 384.4 19.07 384.4 19.07 384.6 26.28 382.6 45.29 380.6 64.3 374.73 130.36 377.39 171.73 380.05 213.11 384.78 267.82 382.12 273.71 379.46 279.6 372.66 287.28 345.47 287.28 318.28 287.28 297.85 276.34 300.38 268.07 302.91 259.8 305.28 196.25 306.76 154.29 308.23 112.32 296.38 25.1 300.39 18.77Z" fill="#B4763E"/><path d="M314.56 26.6C329.57 29.27 331.4 25.1 332.74 26.6 334.07 28.1 334.24 28.93 335.07 28.77 335.9 28.6 339.57 29.94 340.41 29.94 341.24 29.94 342.41 28.77 343.08 28.27 343.75 27.77 342.08 27.77 350.92 27.6 359.76 27.43 366.93 26.6 366.93 26.6 366.93 26.6 368.6 29.27 369.93 29.1 371.26 28.93 371.93 27.6 372.1 26.77 372.12 26.67 372.18 26.56 372.27 26.44L372.21 19.32C372.21 19.32 372.37 18.59 372.21 16.79 372.05 14.99 362.33 14.01 358.57 14.01 354.81 14.01 356.12 14.09 355.3 14.5 354.48 14.91 354.4 14.83 352.28 14.42 350.16 14.01 348.44 13.44 346.4 12.46 344.36 11.48 342.15 11.97 326.96 12.79 311.77 13.61 311.93 13.85 311.68 14.02 311.43 14.18 311.19 15.98 311.19 18.77 311.19 21.56 310.94 20.06 310.54 19.65 310.13 19.24 309.89 15.32 309.89 15.32 309.89 15.32 309.32 14.58 305.23 15.65 301.15 16.71 300.4 18.77 300.4 18.77L300.71 20.15C301.53 21.87 304.44 24.8 314.56 26.6Z" fill="#BA7E41"/><path d="M372.2 16.79C372.18 16.59 372.04 16.39 371.8 16.21 371.8 16.21 371.06 19.65 367.79 20.92 364.52 22.2 360.76 21.44 359.95 21.68 359.13 21.93 358.56 22.41 358.07 22.91 357.58 23.4 357.5 23.97 357.17 24.38 356.84 24.79 356.35 23.89 354.72 22.66 353.09 21.43 346.31 22.41 338.87 22.22 331.44 22.02 330.05 21.68 326.37 21.68 322.7 21.68 323.67 21.68 323.27 22.22 322.86 22.76 322.45 25.68 322.45 25.68 322.45 25.68 321.63 20.86 321.55 20.91 321.47 20.96 321.22 20.45 318.69 20.04 316.16 19.63 315.99 18.75 315.99 18.75 315.99 18.75 312.92 23.8 311.77 26.02 312.64 26.22 313.55 26.41 314.55 26.59 329.56 29.26 331.39 25.09 332.73 26.59 334.06 28.09 334.23 28.92 335.06 28.76 335.89 28.59 339.56 29.93 340.4 29.93 341.23 29.93 342.4 28.76 343.07 28.26 343.74 27.76 342.07 27.76 350.91 27.59 359.75 27.42 366.92 26.59 366.92 26.59 366.92 26.59 368.59 29.26 369.92 29.09 371.25 28.92 371.92 27.59 372.09 26.76 372.11 26.66 372.17 26.55 372.26 26.43L372.2 19.31C372.2 19.32 372.36 18.59 372.2 16.79Z" fill="#935F2D"/><path d="M382.11 273.7C383.05 271.62 383.07 263.47 382.58 251.98 382.58 251.98 382.58 251.99 382.58 251.99 383.47 268.73 347.83 283.14 332.46 273.7 317.09 264.26 337.78 186.79 324.78 139.6 313.05 97.03 316.71 38.18 317.54 27.06 316.61 26.94 315.62 26.78 314.56 26.6 299.55 23.93 300.39 18.76 300.39 18.76 296.39 25.1 308.23 112.31 306.76 154.28 305.28 196.25 302.92 259.79 300.38 268.06 297.85 276.33 318.28 287.27 345.47 287.27 372.66 287.28 379.46 279.59 382.11 273.7Z" fill="#9E6635" opacity="0.9"/><path d="M384.39 19.06C384.39 19.06 381.76 20.93 380.76 21.76 379.76 22.59 378.59 23.43 378.09 25.76 377.59 28.09 376.76 33.43 376.59 34.6 376.42 35.77 375.26 24.35 375.26 24.35 375.26 24.35 372.26 25.93 372.09 26.77 371.92 27.6 371.26 28.94 369.92 29.1 368.59 29.27 366.92 26.6 366.92 26.6 366.92 26.6 365.75 26.74 363.79 26.91 364.09 46.45 364.34 81.2 363.44 123.55 362.02 189.75 371.43 254.25 364.07 285.63 376.19 283.05 380.22 277.92 382.12 273.7 384.78 267.81 380.05 213.09 377.39 171.72 374.73 130.34 380.6 64.29 382.6 45.28 384.59 26.27 384.39 19.06 384.39 19.06Z" fill="#C88D4F" opacity="0.8"/><g opacity="0.5"><path d="M371.48 10.94C371.48 10.94 370.48 11.05 369.7 11.27 368.92 11.49 368.81 12.94 368.25 13.72 367.69 14.5 367.36 10.94 367.03 10.71 366.7 10.49 355.34 7.59 352.11 7.37 348.88 7.15 346.99 7.15 346.65 7.59 346.32 8.04 345.76 9.15 345.2 11.04 344.64 12.93 344.2 12.15 344.42 11.49 344.64 10.82 344.42 7.26 344.42 6.59 344.42 5.92 324.38 6.03 315.36 5.67 306.34 5.3 297.44 5.67 297.44 5.67 297.44 5.67 294.88 6.59 294.1 7.26 293.32 7.93 292.54 7.26 291.98 7.15 291.42 7.04 289.64 7.15 289.42 6.13 289.2 5.1 274.17 6.13 274.17 6.13 274.17 6.13 273.73 6.38 273.17 7.15 272.62 7.93 272.17 8.37 271.84 10.13 320.13 8.09 368.77 14.94 379.75 18.05 381.29 18.49 382.84 18.71 384.35 18.77 383.58 13.62 371.48 10.94 371.48 10.94Z" fill="#F1CA99"/><path d="M269.57 10.23C269.33 8.44 269.16 7.03 269.16 6.93 269.16 6.6 268.38 5.82 265.49 6.26 262.6 6.71 244.67 6.99 244.67 6.99L241.77 9.93C241.77 9.93 240.55 9.37 240.1 8.82 239.65 8.26 239.32 7.6 238.21 7.15 237.1 6.7 235.31 7.15 217.95 9.15 200.58 11.15 186.55 12.15 186.55 12.15 186.55 12.15 184.77 13.71 184.44 14.04 184.11 14.37 181.1 13.93 181.1 13.93 181.1 13.93 181.1 12.37 176.87 13.26 172.64 14.15 161.06 14.71 160.62 14.82 160.17 14.93 160.62 16.27 160.62 16.6 160.62 16.93 155.61 17.82 154.94 17.82 154.27 17.82 154.94 15.82 154.94 15.82 154.94 15.82 145.36 17.94 143.81 18.16 142.25 18.38 144.26 16.6 138.58 17.6 132.9 18.6 124.33 20.05 124.33 20.05 124.33 20.05 123.33 20.72 122.66 21.39 121.99 22.06 122.44 22.73 122.77 23.28 123.1 23.84 123.1 29.29 123.21 30.74 123.32 32.19 121.21 23.95 120.32 22.06 119.43 20.17 118.76 20.28 114.09 21.5 109.41 22.72 86.48 24.62 83.25 25.29 80.02 25.96 79.35 26.63 79.35 26.63 79.35 26.63 75.45 25.96 73.78 25.96 72.11 25.96 70.89 26.18 69.77 26.18 68.66 26.18 66.43 26.85 65.09 26.96 63.75 27.07 63.09 25.96 59.63 26.4 56.18 26.85 42.37 26.96 42.37 26.96 42.37 26.96 40.37 29.3 39.92 31.19 39.47 33.08 39.25 36.09 38.92 36.09 38.59 36.09 38.92 34.2 38.92 31.3 38.92 28.41 37.25 26.96 37.25 26.96 37.25 26.96 34.79 26.52 26 25.52 17.2 24.52 13.2 22.85 13.2 22.85L12.64 23.63 11.19 22.74 10.52 23.63 9.41 21.18C9.41 21.18 9.41 21.18 5.07 18.95 0.73 16.72 2.06 12.16 2.06 12.16-2.44 16.92 1.24 54.84 5.45 73.68 7.95 84.89 10.38 101.82 11.1 125.35L11.1 125.35C11.1 125.35 12.69 61.49 31.02 53.8 49.34 46.12 137.97 55.56 192.07 26.9 212.13 16.27 240.68 11.62 269.57 10.23Z" fill="#F1CA99"/></g><path d="M296.94 5.86C296.15 6.16 294.66 6.78 294.1 7.26 293.32 7.93 292.54 7.26 291.98 7.15 291.42 7.04 289.64 7.15 289.42 6.13 289.2 5.1 274.17 6.13 274.17 6.13 274.17 6.13 273.73 6.38 273.17 7.15 272.61 7.93 272.17 8.37 271.83 10.16 271.5 11.94 271.05 15.62 270.94 17.95 270.83 20.29 269.16 7.26 269.16 6.93 269.16 6.6 268.38 5.82 265.49 6.26 262.6 6.71 244.67 6.99 244.67 6.99L241.77 9.93C241.77 9.93 240.55 9.37 240.1 8.82 239.65 8.26 239.32 7.6 238.21 7.15 237.1 6.7 235.31 7.15 217.95 9.15 200.58 11.15 186.55 12.15 186.55 12.15 186.55 12.15 184.77 13.71 184.44 14.04 184.11 14.37 181.1 13.93 181.1 13.93 181.1 13.93 181.1 12.37 176.87 13.26 172.64 14.15 161.06 14.71 160.62 14.82 160.17 14.93 160.62 16.27 160.62 16.6 160.62 16.93 155.61 17.82 154.94 17.82 154.27 17.82 154.94 15.82 154.94 15.82 154.94 15.82 145.36 17.94 143.81 18.16 142.25 18.38 144.26 16.6 138.58 17.6 132.9 18.6 124.33 20.05 124.33 20.05 124.33 20.05 123.33 20.72 122.66 21.39 121.99 22.06 122.44 22.73 122.77 23.28 123.1 23.84 123.1 29.29 123.21 30.74 123.32 32.19 121.21 23.95 120.32 22.06 119.43 20.17 118.76 20.28 114.09 21.5 109.41 22.72 86.48 24.62 83.25 25.29 80.02 25.96 79.35 26.63 79.35 26.63 79.35 26.63 75.45 25.96 73.78 25.96 72.11 25.96 70.89 26.18 69.77 26.18 68.66 26.18 66.43 26.85 65.09 26.96 63.75 27.07 63.09 25.96 59.63 26.4 56.18 26.85 42.37 26.96 42.37 26.96 42.37 26.96 40.37 29.3 39.92 31.19 39.47 33.08 39.25 36.09 38.92 36.09 38.59 36.09 38.92 34.2 38.92 31.3 38.92 28.41 37.25 26.96 37.25 26.96 37.25 26.96 34.79 26.52 26 25.52 17.2 24.52 13.2 22.85 13.2 22.85L12.64 23.63 11.19 22.74 10.52 23.63 9.41 21.18C9.41 21.18 9.41 21.18 5.07 18.95 0.73 16.72 2.06 12.16 2.06 12.16-2.44 16.92 1.24 54.84 5.45 73.68 9.31 90.97 12.99 121.89 10.48 169.68 129.07 185.35 254.68 54.57 296.94 5.86Z" fill="#F1CA99" opacity="0.3"/></g></svg>