<svg width="63.53" height="81.11" viewBox="0 0 63.53 81.11" xmlns="http://www.w3.org/2000/svg" xmlns:xlink="http://www.w3.org/1999/xlink" overflow="hidden"><defs></defs><g><radialGradient cx="52.7207" cy="24.3536" r="21.3911" gradientUnits="userSpaceOnUse" id="SVGID_1_"><stop offset="0" stop-color="#47FFF0"/><stop offset="1" stop-color="#00A0E4"/></radialGradient><radialGradient cx="52.7213" cy="24.3533" r="21.3916" gradientUnits="userSpaceOnUse" id="SVGID_2_"><stop offset="0" stop-color="#47FFF0"/><stop offset="1" stop-color="#00A0E4"/></radialGradient><radialGradient cx="14.5366" cy="34.8799" r="14.0683" gradientUnits="userSpaceOnUse" id="SVGID_3_"><stop offset="0" stop-color="#47FFF0"/><stop offset="1" stop-color="#00A0E4"/></radialGradient><radialGradient cx="14.5358" cy="34.8795" r="14.0689" gradientUnits="userSpaceOnUse" id="SVGID_4_"><stop offset="0" stop-color="#47FFF0"/><stop offset="1" stop-color="#00A0E4"/></radialGradient><radialGradient cx="57.3122" cy="41.1504" r="21.6468" gradientUnits="userSpaceOnUse" id="SVGID_7_"><stop offset="0" stop-color="#47FFF0"/><stop offset="1" stop-color="#00A0E4"/></radialGradient><radialGradient cx="69.4434" cy="47.1975" r="33.321" gradientUnits="userSpaceOnUse" id="SVGID_8_"><stop offset="0" stop-color="#47FFF0"/><stop offset="1" stop-color="#00A0E4"/></radialGradient><radialGradient cx="20.2473" cy="52.3488" r="11.6013" gradientUnits="userSpaceOnUse" id="SVGID_17_"><stop offset="0" stop-color="#47FFF0"/><stop offset="1" stop-color="#00A0E4"/></radialGradient><radialGradient cx="20.2454" cy="52.3485" r="11.6034" gradientUnits="userSpaceOnUse" id="SVGID_18_"><stop offset="0" stop-color="#47FFF0"/><stop offset="1" stop-color="#00A0E4"/></radialGradient><radialGradient cx="29.9893" cy="51.7889" r="33.6412" gradientUnits="userSpaceOnUse" id="SVGID_31_"><stop offset="0" stop-color="#F9DCC4"/><stop offset="0.2951" stop-color="#EFD3BF"/><stop offset="0.6302" stop-color="#EACEBD"/><stop offset="0.7318" stop-color="#E7C6B4"/><stop offset="0.8979" stop-color="#DFB29B"/><stop offset="1" stop-color="#D9A289"/></radialGradient><radialGradient cx="28.7577" cy="52.4606" r="24.2313" gradientUnits="userSpaceOnUse" id="SVGID_32_"><stop offset="0" stop-color="#00C277"/><stop offset="1" stop-color="#00748C"/></radialGradient><radialGradient cx="26.8538" cy="30.5128" r="33.2049" gradientUnits="userSpaceOnUse" id="SVGID_35_"><stop offset="0.1439" stop-color="#521200"/><stop offset="1" stop-color="#DE6F00"/></radialGradient><radialGradient cx="31.2111" cy="36.0737" r="19.012" gradientUnits="userSpaceOnUse" id="SVGID_36_"><stop offset="0.1439" stop-color="#521200"/><stop offset="1" stop-color="#DE6F00"/></radialGradient><radialGradient cx="42.9402" cy="21.8088" r="3.6581" gradientUnits="userSpaceOnUse" id="SVGID_37_"><stop offset="0" stop-color="#F9DCC4"/><stop offset="0.2951" stop-color="#EFD3BF"/><stop offset="0.6302" stop-color="#EACEBD"/><stop offset="0.7318" stop-color="#E7C6B4"/><stop offset="0.8979" stop-color="#DFB29B"/><stop offset="1" stop-color="#D9A289"/></radialGradient><radialGradient cx="11.5514" cy="23.5686" r="3.2668" gradientUnits="userSpaceOnUse" id="SVGID_38_"><stop offset="0" stop-color="#F9DCC4"/><stop offset="0.2951" stop-color="#EFD3BF"/><stop offset="0.6302" stop-color="#EACEBD"/><stop offset="0.7318" stop-color="#E7C6B4"/><stop offset="0.8979" stop-color="#DFB29B"/><stop offset="1" stop-color="#D9A289"/></radialGradient><radialGradient cx="-21.0116" cy="56.3089" r="4.9321" gradientUnits="userSpaceOnUse" id="SVGID_39_" gradientTransform="matrix(0.9835 -0.1809 0.1809 0.9835 20.3708 -32.6457)"><stop offset="0" stop-color="#F9DCC4"/><stop offset="0.2951" stop-color="#EFD3BF"/><stop offset="0.6302" stop-color="#EACEBD"/><stop offset="0.7318" stop-color="#E7C6B4"/><stop offset="0.8979" stop-color="#DFB29B"/><stop offset="1" stop-color="#D9A289"/></radialGradient><radialGradient cx="-107.179" cy="56.9459" r="5.1802" gradientUnits="userSpaceOnUse" id="SVGID_60_" gradientTransform="matrix(-0.989 0.1482 0.1482 0.989 -69.5817 -17.0131)"><stop offset="0" stop-color="#F9DCC4"/><stop offset="0.2951" stop-color="#EFD3BF"/><stop offset="0.6302" stop-color="#EACEBD"/><stop offset="0.7318" stop-color="#E7C6B4"/><stop offset="0.8979" stop-color="#DFB29B"/><stop offset="1" stop-color="#D9A289"/></radialGradient><radialGradient cx="6.46" cy="36.4965" r="4.1601" gradientUnits="userSpaceOnUse" id="SVGID_63_"><stop offset="0" stop-color="#F9DCC4"/><stop offset="0.2951" stop-color="#EFD3BF"/><stop offset="0.6302" stop-color="#EACEBD"/><stop offset="0.7318" stop-color="#E7C6B4"/><stop offset="0.8979" stop-color="#DFB29B"/><stop offset="1" stop-color="#D9A289"/></radialGradient><radialGradient cx="6.8865" cy="29.5262" r="8.6421" gradientUnits="userSpaceOnUse" id="SVGID_64_" gradientTransform="matrix(0.9999 0.013 -0.013 0.9999 -1.4914 2.6428)"><stop offset="0.1622" stop-color="#F9BA0F"/><stop offset="1" stop-color="#F49910"/></radialGradient><radialGradient cx="3.0262" cy="18.5509" r="5.4153" gradientUnits="userSpaceOnUse" id="SVGID_65_"><stop offset="0.1661" stop-color="#F9EA0F"/><stop offset="1" stop-color="#F49910"/></radialGradient><radialGradient cx="28.3655" cy="-0.5234" r="27.4331" gradientUnits="userSpaceOnUse" id="SVGID_72_"><stop offset="0.1439" stop-color="#521200"/><stop offset="1" stop-color="#DE6F00"/></radialGradient><path d="M34.47 35.1C34.47 35.1 44.27 22.69 54.31 18.69 57.63 17.54 59.4 17.2 59.87 20.93 60.34 24.66 59.46 37.68 39.18 37.89 36.13 37.75 34.47 35.1 34.47 35.1Z" fill="url(#SVGID_1_)"/><path d="M52.48 34.32C49.74 35.44 46.85 36.89 43.81 36.79 42.54 36.75 41.42 36.25 40.31 35.65 39.58 35.26 37.87 34.52 37.95 33.5 38.02 32.65 39.47 32.32 40.1 32.2 41.42 31.95 42.75 31.66 43.41 30.37 43.43 30.33 43.59 30.22 43.58 30.33 43.57 30.66 43.51 30.97 43.4 31.28 43.24 31.72 43.86 31.53 44.13 31.48 44.78 31.36 45.41 31.1 45.9 30.65 46.85 29.8 47.33 28.61 47.53 27.37 47.54 27.32 47.68 27.16 47.72 27.27 47.91 27.85 47.93 28.42 47.82 29.01 48.53 28.47 49.2 27.85 49.58 27.04 49.98 26.19 50.11 25.26 50.2 24.33 50.21 24.27 50.31 24.15 50.38 24.21 50.85 24.68 51.71 24.64 52.12 24.08 52.35 23.75 52.05 23.8 51.81 23.65 51.71 23.59 51.6 23.52 51.51 23.44 51.06 23.02 50.96 22.48 51.03 21.9 51.13 21.17 51.46 20.46 51.88 19.8 42.74 24.6 34.44 35.1 34.44 35.1 34.44 35.1 36.1 37.75 39.15 37.88 46.83 37.8 51.73 35.89 54.83 33.33 54.07 33.68 53.27 34 52.48 34.32Z" fill="url(#SVGID_2_)" opacity="0.5"/><path d="M27.53 41.6C27.53 41.6 19.47 45.93 11.03 36.37 8.19 33.31 8.64 32.26 14.91 32.49 21.18 32.71 39.69 35.1 27.53 41.6Z" fill="url(#SVGID_3_)"/><path d="M14.91 32.49C14.32 32.47 13.79 32.46 13.3 32.46 13.42 33.26 12.92 34.29 12.25 34.76 12.99 34.77 13.73 34.79 14.46 34.6 14.49 34.59 14.51 34.6 14.53 34.63 14.81 35.37 15.57 35.91 16.3 36.15 16.72 36.29 17.2 36.4 17.64 36.28 17.97 36.19 18.02 36.2 17.91 35.9 17.81 35.64 17.72 35.4 17.56 35.17 17.51 35.09 17.66 34.95 17.72 35.02 19.34 36.52 21.65 35.19 23.51 35.19 23.77 35.19 24.65 35.19 24.51 35.68 24.3 36.44 23.16 36.95 22.55 37.29 19.67 38.89 16.48 38.92 13.29 38.63 20.85 45.19 27.53 41.61 27.53 41.61 39.69 35.1 21.18 32.71 14.91 32.49Z" fill="url(#SVGID_4_)" opacity="0.5"/><g><radialGradient cx="12.7071" cy="35.2527" r="13.4386" gradientUnits="userSpaceOnUse" id="SVGID_5_"><stop offset="0" stop-color="#47FFF0"/><stop offset="1" stop-color="#00A0E4"/></radialGradient><radialGradient cx="12.7078" cy="35.2531" r="13.4374" gradientUnits="userSpaceOnUse" id="SVGID_6_"><stop offset="0" stop-color="#47FFF0"/><stop offset="1" stop-color="#00A0E4"/></radialGradient><path d="M9.2 33.39C9.2 33.39 9.25 33.44 9.35 33.53 9.44 33.62 9.59 33.74 9.78 33.9 9.88 33.98 9.98 34.06 10.1 34.15 10.22 34.24 10.35 34.33 10.49 34.43 10.63 34.53 10.78 34.63 10.94 34.73 11.1 34.83 11.27 34.95 11.45 35.06 11.81 35.27 12.2 35.51 12.63 35.72 13.05 35.95 13.52 36.15 14 36.37 14.24 36.48 14.49 36.57 14.74 36.67 14.99 36.77 15.24 36.88 15.5 36.96 15.76 37.05 16.03 37.13 16.29 37.22L16.69 37.35C16.82 37.39 16.96 37.42 17.09 37.46 17.63 37.6 18.16 37.78 18.71 37.88 18.98 37.94 19.25 38 19.51 38.05 19.64 38.08 19.77 38.11 19.9 38.13 20.03 38.15 20.16 38.17 20.29 38.19 20.81 38.27 21.31 38.36 21.79 38.43 22.27 38.48 22.72 38.53 23.14 38.58 23.35 38.6 23.55 38.63 23.74 38.65 23.93 38.66 24.11 38.68 24.28 38.69 24.62 38.71 24.92 38.73 25.16 38.75 25.65 38.79 25.93 38.8 25.93 38.8 25.93 38.8 25.65 38.8 25.16 38.79 24.91 38.79 24.62 38.78 24.27 38.77 24.1 38.77 23.92 38.76 23.72 38.76 23.53 38.74 23.33 38.73 23.12 38.71 22.7 38.67 22.24 38.64 21.76 38.6 21.28 38.54 20.77 38.46 20.25 38.39 20.12 38.37 19.99 38.35 19.86 38.33 19.73 38.3 19.6 38.28 19.46 38.25 19.19 38.2 18.92 38.14 18.65 38.08 18.1 37.98 17.56 37.81 17.02 37.67 16.89 37.63 16.75 37.6 16.61 37.55L16.21 37.41C15.94 37.32 15.68 37.23 15.42 37.14 15.16 37.05 14.9 36.94 14.65 36.84 14.4 36.73 14.15 36.65 13.91 36.53 13.43 36.3 12.97 36.09 12.55 35.85 12.12 35.63 11.73 35.38 11.38 35.15 11.2 35.04 11.04 34.92 10.88 34.81 10.72 34.7 10.58 34.59 10.44 34.48 10.31 34.37 10.18 34.28 10.06 34.18 9.95 34.08 9.85 33.99 9.75 33.91 9.57 33.74 9.43 33.61 9.34 33.51 9.24 33.44 9.2 33.39 9.2 33.39Z" fill="url(#SVGID_5_)"/><path d="M18.64 34.5C18.64 34.5 18.78 34.51 19.04 34.54 19.29 34.57 19.65 34.6 20.08 34.67 20.51 34.73 21.02 34.8 21.55 34.9 22.09 34.99 22.66 35.11 23.23 35.23 23.8 35.36 24.36 35.49 24.89 35.64 25.15 35.71 25.41 35.79 25.64 35.87 25.88 35.95 26.1 36.02 26.31 36.1 26.52 36.18 26.7 36.25 26.86 36.33 27.02 36.41 27.16 36.46 27.27 36.53 27.49 36.66 27.61 36.74 27.61 36.74 27.61 36.74 27.48 36.68 27.25 36.57 27.14 36.51 26.99 36.47 26.83 36.41 26.67 36.34 26.47 36.29 26.27 36.22 26.06 36.15 25.84 36.09 25.6 36.02 25.36 35.95 25.1 35.89 24.84 35.82 24.58 35.75 24.3 35.69 24.03 35.62 23.75 35.55 23.47 35.49 23.19 35.43 22.62 35.3 22.06 35.19 21.52 35.08 20.99 34.97 20.49 34.87 20.06 34.78 19.21 34.62 18.64 34.5 18.64 34.5Z" fill="url(#SVGID_6_)"/></g><path d="M41.63 37.28C41.63 37.28 49.77 36.81 56.01 37.69 62.25 38.57 63.4 39.66 63.54 40.74 63.68 41.82 58.52 48.54 48.62 45.83 41.96 43.45 28.94 37.62 41.63 37.28Z" fill="url(#SVGID_7_)"/><path d="M39.67 40.89C40.17 40.03 41.77 40.39 42.52 40.52 44.12 40.79 45.86 41.28 47.41 40.57 46.29 40.01 44.95 39.71 44.11 38.73 44.08 38.69 44.12 38.63 44.15 38.6 44.7 38.11 45.38 38.09 46.09 38.14 47.14 38.22 48.14 38.09 49.18 37.86 49.93 37.7 50.66 37.49 51.38 37.25 46.37 36.99 41.65 37.27 41.65 37.27 34.06 37.47 35.68 39.65 39.63 41.87 39.5 41.54 39.49 41.2 39.67 40.89Z" fill="url(#SVGID_8_)" opacity="0.5"/><g><radialGradient cx="65.4123" cy="44.4355" r="19.3915" gradientUnits="userSpaceOnUse" id="SVGID_9_"><stop offset="0" stop-color="#47FFF0"/><stop offset="1" stop-color="#00A0E4"/></radialGradient><radialGradient cx="65.4125" cy="44.4358" r="19.3928" gradientUnits="userSpaceOnUse" id="SVGID_10_"><stop offset="0" stop-color="#47FFF0"/><stop offset="1" stop-color="#00A0E4"/></radialGradient><path d="M39.79 39.21C39.79 39.21 40.09 39.44 40.65 39.81 41.21 40.18 42.03 40.67 43.04 41.19 43.55 41.45 44.11 41.71 44.71 41.97 45.32 42.22 45.96 42.46 46.64 42.68 47.32 42.9 48.03 43.09 48.76 43.25 49.13 43.32 49.5 43.4 49.87 43.44L50.43 43.52 51 43.57C51.38 43.61 51.76 43.62 52.13 43.64 52.51 43.65 52.88 43.63 53.26 43.63 53.63 43.6 54 43.58 54.37 43.54 54.55 43.51 54.73 43.49 54.91 43.46 55.09 43.44 55.27 43.41 55.44 43.37 56.14 43.24 56.81 43.06 57.43 42.87 57.74 42.76 58.04 42.66 58.33 42.56 58.61 42.44 58.89 42.32 59.15 42.21 59.41 42.1 59.65 41.96 59.88 41.85 60.11 41.73 60.34 41.63 60.53 41.5 60.73 41.38 60.92 41.27 61.09 41.17 61.26 41.07 61.42 40.97 61.56 40.88 62.11 40.5 62.43 40.29 62.43 40.29 62.43 40.29 62.12 40.52 61.59 40.92 61.46 41.02 61.3 41.12 61.13 41.23 60.96 41.34 60.77 41.45 60.58 41.58 60.39 41.71 60.16 41.82 59.93 41.95 59.7 42.07 59.46 42.21 59.2 42.33 58.94 42.45 58.66 42.57 58.38 42.7 58.09 42.82 57.79 42.92 57.48 43.04 56.86 43.25 56.18 43.44 55.48 43.58 55.31 43.62 55.13 43.65 54.94 43.67 54.76 43.7 54.58 43.72 54.39 43.75 54.02 43.8 53.65 43.82 53.27 43.85 52.89 43.86 52.51 43.88 52.13 43.87 51.75 43.85 51.36 43.86 50.98 43.81L50.41 43.76 49.84 43.68C49.46 43.63 49.09 43.55 48.72 43.48 47.98 43.32 47.26 43.13 46.58 42.9 45.89 42.68 45.25 42.42 44.65 42.16 44.05 41.89 43.49 41.62 42.98 41.35 42.47 41.08 42.02 40.81 41.63 40.56 41.23 40.31 40.9 40.08 40.62 39.89 40.08 39.46 39.79 39.21 39.79 39.21Z" fill="url(#SVGID_9_)"/><path d="M56.24 39.74C56.24 39.74 56.35 39.72 56.55 39.68 56.75 39.65 57.03 39.6 57.37 39.57 57.71 39.54 58.11 39.5 58.54 39.48 58.75 39.48 58.98 39.46 59.2 39.47 59.42 39.47 59.65 39.47 59.88 39.48 60.11 39.49 60.34 39.51 60.56 39.53 60.79 39.54 61.01 39.58 61.22 39.61 61.43 39.63 61.64 39.69 61.83 39.73 62.02 39.77 62.2 39.83 62.37 39.88 62.54 39.92 62.68 40 62.81 40.05 62.87 40.08 62.93 40.1 62.99 40.13 63.04 40.16 63.09 40.19 63.13 40.21 63.3 40.31 63.4 40.37 63.4 40.37 63.4 40.37 63.29 40.33 63.11 40.25 63.06 40.23 63.02 40.21 62.96 40.19 62.9 40.17 62.84 40.15 62.78 40.13 62.65 40.09 62.5 40.04 62.33 40.01 62.16 39.98 61.99 39.92 61.79 39.9 61.6 39.87 61.4 39.83 61.19 39.81 60.98 39.79 60.76 39.76 60.54 39.75 60.32 39.73 60.09 39.72 59.87 39.71 59.42 39.68 58.96 39.69 58.54 39.68 58.11 39.68 57.72 39.68 57.38 39.7 57.04 39.71 56.75 39.71 56.56 39.73 56.35 39.74 56.24 39.74 56.24 39.74Z" fill="url(#SVGID_10_)"/></g><g><radialGradient cx="63.3972" cy="18.8296" r="20.2314" gradientUnits="userSpaceOnUse" id="SVGID_11_"><stop offset="0" stop-color="#47FFF0"/><stop offset="1" stop-color="#00A0E4"/></radialGradient><radialGradient cx="63.3963" cy="18.8289" r="20.2326" gradientUnits="userSpaceOnUse" id="SVGID_12_"><stop offset="0" stop-color="#47FFF0"/><stop offset="1" stop-color="#00A0E4"/></radialGradient><radialGradient cx="63.4012" cy="18.8314" r="20.233" gradientUnits="userSpaceOnUse" id="SVGID_13_"><stop offset="0" stop-color="#47FFF0"/><stop offset="1" stop-color="#00A0E4"/></radialGradient><radialGradient cx="63.3977" cy="18.8245" r="20.2382" gradientUnits="userSpaceOnUse" id="SVGID_14_"><stop offset="0" stop-color="#47FFF0"/><stop offset="1" stop-color="#00A0E4"/></radialGradient><radialGradient cx="63.3971" cy="18.8192" r="20.2399" gradientUnits="userSpaceOnUse" id="SVGID_15_"><stop offset="0" stop-color="#47FFF0"/><stop offset="1" stop-color="#00A0E4"/></radialGradient><radialGradient cx="63.4001" cy="18.8294" r="20.2358" gradientUnits="userSpaceOnUse" id="SVGID_16_"><stop offset="0" stop-color="#47FFF0"/><stop offset="1" stop-color="#00A0E4"/></radialGradient><path d="M39.06 36.52C39.06 36.52 39.47 36.41 40.16 36.18 40.86 35.95 41.85 35.59 43.01 35.1 43.59 34.85 44.21 34.58 44.86 34.26 45.19 34.11 45.51 33.93 45.85 33.76 46.18 33.58 46.53 33.41 46.87 33.21 47.21 33.02 47.56 32.82 47.91 32.61 48.26 32.41 48.6 32.18 48.95 31.96 49.3 31.74 49.64 31.5 49.98 31.26 50.32 31.01 50.66 30.77 50.99 30.51 51.32 30.25 51.66 30 51.97 29.72 52.13 29.59 52.29 29.45 52.45 29.32 52.61 29.18 52.75 29.04 52.91 28.9 53.06 28.76 53.21 28.62 53.36 28.48 53.5 28.33 53.65 28.19 53.79 28.05 54.08 27.77 54.34 27.47 54.6 27.17 55.11 26.6 55.58 26 56 25.42 56.22 25.13 56.4 24.83 56.59 24.55 56.68 24.41 56.78 24.27 56.86 24.13 56.94 23.99 57.02 23.85 57.1 23.71 57.42 23.17 57.66 22.64 57.89 22.19 58.09 21.72 58.27 21.31 58.4 20.97 58.64 20.27 58.78 19.88 58.78 19.88 58.78 19.88 58.66 20.28 58.44 20.99 58.32 21.34 58.15 21.75 57.97 22.23 57.75 22.69 57.53 23.23 57.21 23.78 57.13 23.92 57.06 24.06 56.98 24.2 56.9 24.34 56.81 24.48 56.72 24.63 56.54 24.92 56.36 25.22 56.14 25.52 55.73 26.12 55.26 26.73 54.74 27.32 54.48 27.61 54.22 27.92 53.93 28.21 53.79 28.36 53.64 28.5 53.5 28.65 53.35 28.79 53.2 28.93 53.05 29.08 52.9 29.22 52.75 29.37 52.59 29.5 52.43 29.64 52.27 29.77 52.11 29.91 51.8 30.19 51.46 30.44 51.13 30.71 50.8 30.97 50.45 31.21 50.11 31.46 49.76 31.69 49.42 31.94 49.07 32.16 48.72 32.38 48.37 32.6 48.02 32.81 47.67 33.02 47.32 33.21 46.97 33.4 46.63 33.59 46.28 33.77 45.94 33.94 45.6 34.1 45.26 34.27 44.93 34.42 44.27 34.72 43.64 34.99 43.06 35.23 41.89 35.7 40.88 36.02 40.18 36.23 39.47 36.43 39.06 36.52 39.06 36.52Z" fill="url(#SVGID_11_)"/><path d="M36.82 34.95C36.82 34.95 37.11 34.65 37.62 34.15 38.14 33.65 38.88 32.93 39.79 32.09 40.25 31.67 40.74 31.22 41.27 30.75 41.8 30.28 42.36 29.78 42.95 29.28 43.53 28.77 44.16 28.27 44.78 27.75 45.41 27.24 46.05 26.72 46.7 26.21 47.36 25.71 48.01 25.2 48.66 24.72 48.99 24.48 49.31 24.24 49.63 24.01 49.79 23.89 49.95 23.78 50.11 23.66 50.27 23.55 50.43 23.44 50.59 23.33 51.23 22.89 51.83 22.45 52.44 22.08 53.04 21.7 53.6 21.32 54.13 21.01 54.66 20.69 55.15 20.4 55.58 20.15 56.01 19.89 56.41 19.7 56.72 19.52 57.36 19.18 57.72 18.99 57.72 18.99 57.72 18.99 57.36 19.2 56.74 19.56 56.43 19.74 56.04 19.95 55.62 20.22 55.2 20.49 54.71 20.79 54.19 21.12 53.67 21.45 53.12 21.83 52.53 22.22 52.38 22.32 52.23 22.42 52.08 22.52 51.93 22.63 51.78 22.73 51.63 22.84 51.33 23.05 51.02 23.27 50.7 23.5 50.54 23.61 50.38 23.72 50.22 23.84 50.06 23.96 49.9 24.07 49.74 24.19 49.42 24.43 49.1 24.67 48.77 24.91 48.12 25.39 47.48 25.91 46.82 26.41 46.17 26.92 45.53 27.43 44.9 27.94 44.28 28.46 43.65 28.95 43.07 29.46 42.48 29.96 41.91 30.44 41.37 30.9 40.83 31.36 40.33 31.8 39.86 32.21 38.94 33.03 38.17 33.72 37.64 34.21 37.12 34.67 36.82 34.95 36.82 34.95Z" fill="url(#SVGID_12_)"/><path d="M44.36 34.58C44.36 34.58 44.34 34.49 44.32 34.33 44.31 34.25 44.3 34.16 44.29 34.05 44.28 33.94 44.27 33.81 44.27 33.68 44.27 33.54 44.27 33.4 44.27 33.24 44.27 33.08 44.28 32.92 44.29 32.75 44.31 32.58 44.31 32.4 44.34 32.23 44.37 32.05 44.39 31.87 44.42 31.69 44.45 31.51 44.47 31.33 44.52 31.16 44.56 30.99 44.6 30.82 44.64 30.65 44.68 30.48 44.72 30.33 44.76 30.18 44.81 30.03 44.85 29.89 44.89 29.76 44.97 29.5 45.05 29.29 45.1 29.14 45.15 28.99 45.19 28.91 45.19 28.91 45.19 28.91 45.18 29 45.14 29.15 45.11 29.3 45.07 29.53 45.01 29.79 44.98 29.92 44.95 30.06 44.91 30.21 44.88 30.36 44.86 30.52 44.82 30.69 44.79 30.86 44.75 31.03 44.72 31.2 44.68 31.37 44.66 31.55 44.63 31.73 44.6 31.91 44.57 32.08 44.55 32.26 44.52 32.43 44.51 32.61 44.49 32.77 44.47 32.94 44.44 33.1 44.43 33.25 44.42 33.4 44.4 33.55 44.39 33.68 44.38 33.81 44.38 33.94 44.37 34.05 44.36 34.16 44.36 34.25 44.36 34.33 44.36 34.49 44.36 34.58 44.36 34.58Z" fill="url(#SVGID_13_)"/><path d="M49.35 31.91C49.35 31.91 49.48 31.9 49.71 31.88 49.82 31.87 49.96 31.86 50.12 31.84 50.28 31.82 50.45 31.79 50.65 31.77 50.84 31.75 51.05 31.71 51.27 31.68 51.49 31.64 51.72 31.61 51.96 31.56 52.2 31.51 52.44 31.46 52.69 31.41 52.94 31.37 53.19 31.3 53.44 31.24 53.69 31.18 53.94 31.12 54.19 31.05 54.44 30.99 54.67 30.91 54.91 30.84 55.14 30.77 55.37 30.7 55.58 30.64 55.8 30.58 55.99 30.51 56.17 30.43 56.53 30.29 56.84 30.18 57.05 30.1 57.27 30.02 57.39 29.98 57.39 29.98 57.39 29.98 57.27 30.04 57.07 30.14 56.86 30.24 56.57 30.38 56.22 30.54 56.04 30.62 55.85 30.71 55.64 30.78 55.43 30.86 55.21 30.93 54.97 31.02 54.85 31.06 54.74 31.1 54.62 31.14 54.5 31.18 54.38 31.22 54.25 31.25 54 31.31 53.75 31.38 53.49 31.44 53.24 31.5 52.98 31.57 52.73 31.61 52.48 31.65 52.23 31.7 51.99 31.74 51.75 31.79 51.51 31.8 51.29 31.82 51.07 31.84 50.86 31.87 50.66 31.88 50.46 31.89 50.28 31.9 50.13 31.9 49.97 31.91 49.83 31.9 49.72 31.9 49.48 31.93 49.35 31.91 49.35 31.91Z" fill="url(#SVGID_14_)"/><path d="M42.46 35.4C42.46 35.4 42.99 35.44 43.79 35.49 44.19 35.52 44.66 35.55 45.15 35.58 45.65 35.61 46.18 35.64 46.71 35.66 47.24 35.68 47.77 35.69 48.27 35.7 48.52 35.7 48.76 35.7 48.99 35.7 49.22 35.7 49.43 35.68 49.63 35.68 49.83 35.67 50.01 35.65 50.17 35.64 50.33 35.63 50.47 35.61 50.59 35.6 50.82 35.57 50.96 35.56 50.96 35.56 50.96 35.56 50.83 35.59 50.6 35.64 50.49 35.67 50.35 35.7 50.19 35.72 50.03 35.74 49.85 35.78 49.65 35.8 49.25 35.84 48.78 35.88 48.28 35.9 48.03 35.9 47.77 35.91 47.5 35.91 47.24 35.9 46.97 35.9 46.7 35.89 46.16 35.87 45.63 35.83 45.13 35.79 44.63 35.75 44.17 35.68 43.77 35.63 42.98 35.51 42.46 35.4 42.46 35.4Z" fill="url(#SVGID_15_)"/><path d="M54.18 21.07C54.18 21.07 54.16 21.19 54.13 21.39 54.09 21.59 54.05 21.89 53.99 22.24 53.93 22.59 53.88 23 53.81 23.44 53.78 23.66 53.75 23.89 53.72 24.12 53.69 24.35 53.65 24.58 53.63 24.82 53.6 25.05 53.58 25.29 53.55 25.52 53.52 25.75 53.5 25.98 53.49 26.2 53.46 26.64 53.4 27.05 53.4 27.41 53.39 27.76 53.36 28.06 53.36 28.27 53.35 28.48 53.34 28.6 53.34 28.6 53.34 28.6 53.33 28.48 53.32 28.27 53.31 28.06 53.29 27.77 53.28 27.41 53.27 27.23 53.27 27.04 53.28 26.84 53.29 26.64 53.29 26.42 53.3 26.2 53.31 25.98 53.32 25.75 53.35 25.51 53.37 25.28 53.4 25.04 53.42 24.8 53.47 24.33 53.55 23.86 53.62 23.42 53.66 23.2 53.71 22.99 53.75 22.79 53.79 22.59 53.83 22.4 53.88 22.23 54.02 21.52 54.18 21.07 54.18 21.07Z" fill="url(#SVGID_16_)"/></g><path d="M26.2 41.69C26.2 41.69 21.21 43.8 17.69 52.45 15.93 56.95 19.24 57.51 22.75 56.39 26.27 55.26 28.3 51.19 28.94 47.32 29.58 43.45 26.2 41.69 26.2 41.69Z" fill="url(#SVGID_17_)"/><path d="M25.88 44.37C26.51 46.01 27.49 47.33 28.7 48.52 28.8 48.12 28.88 47.71 28.94 47.31 29.57 43.44 26.2 41.69 26.2 41.69 26.2 41.69 25.62 41.93 24.72 42.59 25.36 42.96 25.62 43.7 25.88 44.37Z" fill="url(#SVGID_18_)" opacity="0.5"/><g><radialGradient cx="42.7546" cy="74.4071" r="7.277" gradientUnits="userSpaceOnUse" id="SVGID_21_"><stop offset="0" stop-color="#00C277"/><stop offset="1" stop-color="#00748C"/></radialGradient><radialGradient cx="42.7527" cy="74.4063" r="7.2801" gradientUnits="userSpaceOnUse" id="SVGID_22_"><stop offset="0" stop-color="#00C277"/><stop offset="1" stop-color="#00748C"/></radialGradient><radialGradient cx="42.7537" cy="74.4062" r="7.2761" gradientUnits="userSpaceOnUse" id="SVGID_23_"><stop offset="0" stop-color="#00C277"/><stop offset="1" stop-color="#00748C"/></radialGradient><radialGradient cx="42.7517" cy="74.4068" r="7.2808" gradientUnits="userSpaceOnUse" id="SVGID_24_"><stop offset="0" stop-color="#00C277"/><stop offset="1" stop-color="#00748C"/></radialGradient><g><linearGradient x1="44.0583" y1="80.5919" x2="41.9307" y2="58.868" gradientUnits="userSpaceOnUse" id="SVGID_19_"><stop offset="0" stop-color="#F9DCC4"/><stop offset="0.2951" stop-color="#EFD3BF"/><stop offset="0.6302" stop-color="#EACEBD"/><stop offset="1" stop-color="#DBAE8E"/></linearGradient><radialGradient cx="42.7495" cy="74.4066" r="7.2819" gradientUnits="userSpaceOnUse" id="SVGID_20_"><stop offset="0" stop-color="#00C277"/><stop offset="1" stop-color="#00748C"/></radialGradient><path d="M48.83 79.18C49.42 79.09 50.08 76.18 49.85 73.25 49.69 73.2 49.5 73.16 49.29 73.12 47.74 72.9 40.03 68.55 39.29 56.16 39.29 56.16 37.12 56.91 35.41 58.7 35.41 58.7 36.9 68.93 44.29 73.41 46.76 74.98 48.26 75.2 48.23 75.74 48.22 76.01 48.04 77.29 48.03 78.53 48.21 78.87 48.49 79.23 48.83 79.18Z" fill="url(#SVGID_19_)"/><path d="M49.85 73.25C50.07 76.18 49.42 79.08 48.83 79.18 48.49 79.23 48.21 78.87 48.03 78.53 48.02 79.77 48.18 80.98 48.83 81.1 50.14 81.35 50.87 78.16 50.92 76.2 50.97 74.48 51.01 73.62 49.85 73.25Z" fill="url(#SVGID_20_)"/></g><path d="M48.12 76.56 49.79 76.3 49.83 75.22 48.21 75.52Z" fill="url(#SVGID_21_)"/><path d="M47.31 74.96 49.47 73.11 48.57 72.91 46.3 74.5Z" fill="url(#SVGID_22_)"/><path d="M45.92 71.16 45.72 74.19 46.3 74.5 46.48 74.36 46.79 71.84C46.79 71.83 46.3 71.5 45.92 71.16Z" fill="url(#SVGID_23_)"/><path d="M43.06 72.49 44.91 70.25 45.52 70.83 43.81 73.09Z" fill="url(#SVGID_24_)"/></g><g><radialGradient cx="48.3472" cy="63.8161" r="7.0571" gradientUnits="userSpaceOnUse" id="SVGID_27_"><stop offset="0" stop-color="#00C277"/><stop offset="1" stop-color="#00748C"/></radialGradient><radialGradient cx="48.347" cy="63.8156" r="7.0571" gradientUnits="userSpaceOnUse" id="SVGID_28_"><stop offset="0" stop-color="#00C277"/><stop offset="1" stop-color="#00748C"/></radialGradient><radialGradient cx="48.3475" cy="63.816" r="7.0567" gradientUnits="userSpaceOnUse" id="SVGID_29_"><stop offset="0" stop-color="#00C277"/><stop offset="1" stop-color="#00748C"/></radialGradient><radialGradient cx="48.3468" cy="63.8155" r="7.0565" gradientUnits="userSpaceOnUse" id="SVGID_30_"><stop offset="0" stop-color="#00C277"/><stop offset="1" stop-color="#00748C"/></radialGradient><g><linearGradient x1="38.9482" y1="60.7538" x2="55.774" y2="60.7538" gradientUnits="userSpaceOnUse" id="SVGID_25_"><stop offset="0" stop-color="#F9DCC4"/><stop offset="0.2951" stop-color="#EFD3BF"/><stop offset="0.6302" stop-color="#EACEBD"/><stop offset="1" stop-color="#DBAE8E"/></linearGradient><radialGradient cx="48.3466" cy="63.8161" r="7.0572" gradientUnits="userSpaceOnUse" id="SVGID_26_"><stop offset="0" stop-color="#00C277"/><stop offset="1" stop-color="#00748C"/></radialGradient><path d="M54.43 60.44C53.63 58.82 52.75 58.23 52.23 58.01 52.02 58.18 51.81 58.45 51.6 58.84 48.74 60.97 45.22 62.48 44.27 61.92 43.32 61.36 43.04 58.9 43.21 57.27L38.96 55.7C38.96 55.7 39.02 63.26 41.87 65.33 44.73 67.4 51.61 61.86 52.56 61.3 53.47 62.75 54.47 64.49 55.49 65.25 56.18 64.5 55.55 62.7 54.43 60.44Z" fill="url(#SVGID_25_)"/><path d="M55.24 60.19C54.31 58.66 53.26 57.16 52.23 58.01 52.75 58.23 53.63 58.82 54.43 60.44 55.55 62.7 56.18 64.5 55.49 65.25 55.85 65.52 56.22 65.66 56.59 65.62 57.98 65.45 56.36 62.03 55.24 60.19Z" fill="url(#SVGID_26_)"/></g><path d="M47.63 61.2 48.9 63.7 49.77 63.17 48.48 60.8Z" fill="url(#SVGID_27_)"/><path d="M48.48 60.82 50.48 62.71 51.43 62.05 49.42 60.28Z" fill="url(#SVGID_28_)"/><path d="M50.54 59.63 51.75 61.83 52.55 61.31 51.53 58.92Z" fill="url(#SVGID_29_)"/><path d="M54.1 59.86C54.1 59.86 53.07 60.47 52.63 61.38 53.12 62.21 53.12 62.21 53.12 62.21 53.12 62.21 53.77 61.36 54.7 61.01 54.33 60.24 54.1 59.86 54.1 59.86Z" fill="url(#SVGID_30_)"/></g><path d="M57.29 39.64C57.2 39.08 55.62 39.08 54.41 39.23 56.38 38.47 56.81 37.89 56.55 37.52 56.29 37.15 54.95 37.95 54.17 38.37 55.16 37.05 55.43 36.38 55.06 36.23 54.59 36.05 54.03 38.15 51.99 38.71 49.95 39.27 45.71 39.12 42.64 37.81 40.01 36.69 38.78 35.4 36.56 34.42 34.35 33.44 32.44 33.86 30.82 34.53L30.43 33.55 26.89 34.14 27.45 35.57C27.45 35.57 26.2 35.35 23.35 37.21 20.67 38.76 14.47 40.77 9.37 37.07 8.57 38.59 8.5 38.99 8.5 38.99 8.5 38.99 13.78 44.42 25.43 40.31 25.43 40.31 25.48 38.99 25.68 37.94 28.97 39.61 29.88 40.92 29.88 40.92 29.88 40.92 30.84 38.22 33.31 36.15 34.79 37.51 36.83 38.48 37.6 38.89 43.48 40.91 47.34 41.97 50.81 40.63 51.87 40.29 51.88 40.59 52.19 41.43 52.51 42.27 52.73 43.16 53.19 43.08 53.65 43 53.32 41.91 53.04 41.04 54.81 41.97 56.27 42.38 56.39 41.84 56.5 41.3 56.15 41.23 55.27 40.95 54.4 40.67 53.84 40.26 53.84 40.26 53.84 40.26 57.29 40.38 57.29 39.64Z" fill="url(#SVGID_31_)"/><path d="M50.11 45.78C51.15 45.29 51.38 43.95 50.11 43.69 48.84 43.43 50 42.87 50.37 42.16 50.74 41.45 49.75 41.43 47.96 41.71 46.17 41.99 44.38 42.05 42.25 43.89 42.25 43.89 42.19 46.07 40.18 48.65 37.44 51.73 33.97 51.56 31.73 51.06 29.04 51.62 28.86 52.19 27.38 52.9 25.9 53.61 25.6 53.9 25.6 53.9 25.6 53.9 25.23 56.83 27.3 58.23 28.11 58.57 28.9 56.94 29.82 57 30.74 57.06 31.33 58.68 32.68 59.41 34.02 60.14 36.07 59.63 37.27 58.07 38.47 56.5 38.84 56.78 39.68 57.45 40.52 58.12 42.87 58.91 44.35 57.28 45.22 56.33 45.41 55.74 45.72 54.23 46.03 52.72 46.78 52.41 47.99 52.49 49.19 52.57 49.74 52.09 50.18 50.93 50.63 49.77 50.55 49.03 49.62 48.09 48.69 47.16 49.06 46.26 50.11 45.78Z" fill="url(#SVGID_32_)"/><g><radialGradient cx="28.3101" cy="42.1582" r="14.3948" gradientUnits="userSpaceOnUse" id="SVGID_33_"><stop offset="0" stop-color="#00C277"/><stop offset="1" stop-color="#00748C"/></radialGradient><radialGradient cx="28.6974" cy="37.6105" r="11.5325" gradientUnits="userSpaceOnUse" id="SVGID_34_"><stop offset="0.1661" stop-color="#F9EA0F"/><stop offset="1" stop-color="#F49910"/></radialGradient><path d="M38.62 41.25C36.45 40.32 33.37 38.21 33.37 38.21 31.44 40.14 31.16 43.78 31.16 43.78 31.16 43.78 29.76 41.76 26.74 40.08 26.21 40.78 25.98 41.94 25.89 42.75 26.69 45.35 28.57 48.36 31.73 51.05 33.97 51.55 37.44 51.72 40.18 48.64 42.2 46.06 42.25 43.88 42.25 43.88 40.71 43.1 39.63 42.93 38.62 41.25Z" fill="url(#SVGID_33_)"/><path d="M31.16 43.78C31.16 43.78 31.44 40.14 33.37 38.21 33.37 38.21 36.45 40.32 38.62 41.25 38.28 40.67 37.94 39.92 37.6 38.91 36.83 38.5 34.79 37.53 33.31 36.17 30.84 38.24 29.88 40.94 29.88 40.94 29.88 40.94 28.97 39.63 25.68 37.96 25.48 39.01 25.43 40.33 25.43 40.33 25.47 41.07 25.62 41.89 25.88 42.76 25.98 41.95 26.2 40.79 26.73 40.09 29.77 41.77 31.16 43.78 31.16 43.78Z" fill="url(#SVGID_34_)"/></g><path d="M6.88 22.94C6.88 22.94 8.82 24.28 9.94 22.34 11.06 20.4 8.45 19.8 7.33 17.71 6.21 15.62 7.33 11.89 10.62 11.59 7.85 11.21 7.71 9.2 8.75 7.93 8.82 10.02 11.36 10.17 14.8 7.11 18.23 4.05 21.74 0.32 28.98 0.02 36.22-0.28 36.6 3.38 36.6 3.38 36.6 3.38 39.44 2.48 42.5 5.25 45.56 8.01 45.71 11.07 46.53 13.16 47.35 15.25 50.49 16.07 50.71 13.98 51.53 15.92 49.22 16.74 49.22 16.74 51.53 17.41 52.06 18.76 51.53 19.95 51.01 21.14 50.56 23.38 52.57 23.16 52.65 24.95 50.41 24.5 49.51 23.76 50.26 26 48.61 27.49 48.02 28.09 48.09 26.9 47.05 26 47.05 26 47.05 26 48.09 29.96 43.69 30.63 44.21 29.51 43.76 28.54 43.76 28.54 43.76 28.54 43.31 33.32 33.76 32.05 29.43 31.53 26 32.87 22.86 34.22 19.72 35.56 17.71 34.67 16.89 33.77 16.67 34.89 17.26 35.64 17.26 35.64 17.26 35.64 14.95 35.86 14.57 33.92 13.6 35.34 11.58 34.52 11.58 34.52 11.58 34.52 13.52 34.3 12.4 32.73 11.28 31.16 8.97 32.66 8 29.89 7.03 27.13 8.9 25.64 8.9 25.64 8.9 25.64 6.14 25.92 6.88 22.94Z" fill="url(#SVGID_35_)"/><path d="M12.83 25.74C12.83 25.74 11.19 32.66 22.86 34.21 30.97 31.87 34.6 32.13 34.6 32.13 34.6 32.13 39.85 30.12 40.11 25.13 41.73 25.65 43.61 25 43.67 22.6 43.54 20.46 40.88 22.47 40.88 22.47L35.31 24.61 12.83 25.74Z" fill="url(#SVGID_36_)"/><path d="M39.25 21.68C39.25 21.68 39.77 19.6 41.49 19.6 43.21 19.6 44.37 22.52 42.65 24.28 41.21 25.52 39.09 24.88 39.25 21.68Z" fill="url(#SVGID_37_)"/><path d="M14.28 23.35C14.28 23.35 14.56 21.87 12.94 21.81 11.32 21.75 10.87 23.43 10.87 24.78 10.87 26.12 12.94 26.71 13.39 25.93 13.84 25.14 14.28 23.35 14.28 23.35Z" fill="url(#SVGID_38_)"/><path d="M12.32 23.27C11.59 23.19 11.54 23.98 11.54 23.98 11.64 23.74 11.91 23.42 12.52 23.64 12.74 23.72 12.88 23.95 12.98 24.21 12.87 25.09 12.16 24.6 12.16 24.6 12.16 24.6 12.39 25.12 12.87 24.98 13.01 24.94 13.08 24.87 13.12 24.78 13.17 25.07 13.18 25.3 13.18 25.3 13.5 24.82 13.05 23.36 12.32 23.27Z" fill="url(#SVGID_39_)"/><g><radialGradient cx="25.5475" cy="21.8156" r="14.6023" gradientUnits="userSpaceOnUse" id="SVGID_40_"><stop offset="0" stop-color="#F9DCC4"/><stop offset="0.2951" stop-color="#EFD3BF"/><stop offset="0.6302" stop-color="#EACEBD"/><stop offset="0.7318" stop-color="#E7C6B4"/><stop offset="0.8979" stop-color="#DFB29B"/><stop offset="1" stop-color="#D9A289"/></radialGradient><radialGradient cx="26.7701" cy="30.5841" r="12.5013" gradientUnits="userSpaceOnUse" id="SVGID_41_"><stop offset="0" stop-color="#FFFFFF"/><stop offset="0.2126" stop-color="#F9EEEA"/><stop offset="0.6509" stop-color="#EAC2B3"/><stop offset="0.7485" stop-color="#E6B8A6"/><stop offset="0.8142" stop-color="#E4B2A0"/><stop offset="0.9033" stop-color="#DEA18F"/><stop offset="1" stop-color="#D48774"/></radialGradient><linearGradient x1="99.1786" y1="88.0743" x2="100.35" y2="91.2604" gradientUnits="userSpaceOnUse" id="SVGID_59_" gradientTransform="matrix(0.9457 -0.3249 0.3249 0.9457 -95.8418 -21.4518)"><stop offset="0.0995" stop-color="#F7BBB0"/><stop offset="1" stop-color="#E84D5B"/></linearGradient><path d="M14.65 13.3C14.65 13.3 13.01 14.87 13.98 17.93 14.95 20.99 14.35 23.08 13.53 24.65 12.71 26.22 12.71 29.95 18.38 32.71 24.05 35.47 30.92 35.02 35.18 31.67 39.43 28.31 40.26 26 39.36 21.29 37.72 22.41 35.7 22.56 35.48 20.62 37.05 21.74 37.87 20.32 37.05 18.75 36.23 17.18 35.41 16.81 33.39 15.32 31.37 13.83 30.33 11.89 30.26 10.69 29.29 13.23 23.83 16.37 19.49 16.08 16.11 15.94 14.38 14.87 14.65 13.3Z" fill="url(#SVGID_40_)"/><path d="M19.75 28.44C19.75 28.44 25.92 30.38 31.29 25.7 31.79 29.02 30.43 32.37 27.93 33.09 25.43 33.82 24.6 33.2 19.75 28.44Z" fill="url(#SVGID_41_)"/><g><radialGradient cx="-1.4949" cy="1.3166" r="6.5145" gradientUnits="userSpaceOnUse" id="SVGID_42_" gradientTransform="matrix(0.9813 -0.1923 0.1923 0.9813 19.4615 19.7679)"><stop offset="0" stop-color="#FFFFFF"/><stop offset="0.2126" stop-color="#F9EEEA"/><stop offset="0.6509" stop-color="#EAC2B3"/><stop offset="0.7485" stop-color="#E6B8A6"/><stop offset="0.8142" stop-color="#E4B2A0"/><stop offset="0.9033" stop-color="#DEA18F"/><stop offset="1" stop-color="#D48774"/></radialGradient><path d="M19.26 20.23C19.26 20.23 18.57 19.12 17.52 19.76 16.46 20.4 15.9 22.6 17.2 24.62 17.2 24.62 17.41 24.92 17.56 25.02L16.5 25.32C16.5 25.32 18.2 25.11 19.31 25.36L19.12 25.02C19.12 25.02 20.15 24.38 20.08 22.74 19.99 21.11 19.26 20.23 19.26 20.23Z" fill="url(#SVGID_42_)"/><g><linearGradient x1="-2.0486" y1="5.2292" x2="-1.2687" y2="-1.1937" gradientUnits="userSpaceOnUse" id="SVGID_43_" gradientTransform="matrix(0.9813 -0.1923 0.1923 0.9813 19.4615 19.7679)"><stop offset="0" stop-color="#FFFFFF"/><stop offset="0.8358" stop-color="#EAEAEA"/><stop offset="1" stop-color="#E5E5E5"/></linearGradient><path d="M19.8 22.31C19.87 23.79 19.23 25.02 18.37 25.06 17.51 25.1 16.76 23.93 16.69 22.46 16.62 20.98 17.26 19.75 18.11 19.71 18.97 19.67 19.73 20.83 19.8 22.31Z" fill="url(#SVGID_43_)"/><g><radialGradient cx="-274.878" cy="-22.5852" r="5.5113" gradientUnits="userSpaceOnUse" id="SVGID_44_" gradientTransform="matrix(0.9976 0.0693 -0.0693 0.9976 292.13 66.6106)"><stop offset="0.2327" stop-color="#366480"/><stop offset="1" stop-color="#1DAECE"/></radialGradient><radialGradient cx="-275.677" cy="-23.3033" r="3.6594" gradientUnits="userSpaceOnUse" id="SVGID_45_" gradientTransform="matrix(0.9976 0.0693 -0.0693 0.9976 292.13 66.6106)"><stop offset="0.2462" stop-color="#054C57"/><stop offset="1" stop-color="#195E38"/></radialGradient><linearGradient x1="-293.425" y1="-74.4355" x2="-295.02" y2="-74.309" gradientUnits="userSpaceOnUse" id="SVGID_46_" gradientTransform="matrix(0.9964 0.0841 -0.0841 0.9964 304.287 120.902)"><stop offset="0" stop-color="#FFFFFF"/><stop offset="0.8358" stop-color="#EAEAEA"/><stop offset="1" stop-color="#E5E5E5"/></linearGradient><path d="M19.08 22.51C19.13 23.64 18.64 24.58 17.99 24.62 17.33 24.65 16.76 23.76 16.71 22.63 16.66 21.5 17.15 20.56 17.8 20.52 18.45 20.49 19.02 21.38 19.08 22.51Z" fill="url(#SVGID_44_)"/><path d="M18.46 22.59C18.5 23.34 18.17 23.97 17.74 23.99 17.3 24.01 16.92 23.42 16.89 22.67 16.86 21.92 17.18 21.29 17.61 21.27 18.05 21.25 18.43 21.84 18.46 22.59Z" fill="url(#SVGID_45_)"/><path d="M17.74 22.08C17.71 22.52 17.49 22.86 17.23 22.85 16.97 22.84 16.79 22.47 16.82 22.03 16.85 21.59 17.07 21.25 17.33 21.26 17.58 21.27 17.76 21.64 17.74 22.08Z" fill="url(#SVGID_46_)"/></g></g></g><g><radialGradient cx="-22.6329" cy="14.639" r="6.5147" gradientUnits="userSpaceOnUse" id="SVGID_47_" gradientTransform="matrix(0.9365 -0.3506 0.3506 0.9365 45.3757 -1.7864)"><stop offset="0" stop-color="#FFFFFF"/><stop offset="0.2126" stop-color="#F9EEEA"/><stop offset="0.6509" stop-color="#EAC2B3"/><stop offset="0.7485" stop-color="#E6B8A6"/><stop offset="0.8142" stop-color="#E4B2A0"/><stop offset="0.9033" stop-color="#DEA18F"/><stop offset="1" stop-color="#D48774"/></radialGradient><path d="M30.13 18.59C30.13 18.59 29.27 17.6 28.33 18.41 27.39 19.22 27.19 21.48 28.81 23.26 28.81 23.26 29.07 23.52 29.23 23.59L28.23 24.06C28.23 24.06 29.88 23.57 31.01 23.64L30.77 23.34C30.77 23.34 31.68 22.54 31.34 20.94 31 19.34 30.13 18.59 30.13 18.59Z" fill="url(#SVGID_47_)"/><g><linearGradient x1="-23.1875" y1="18.5514" x2="-22.4075" y2="12.1283" gradientUnits="userSpaceOnUse" id="SVGID_48_" gradientTransform="matrix(0.9365 -0.3506 0.3506 0.9365 45.3757 -1.7864)"><stop offset="0" stop-color="#FFFFFF"/><stop offset="0.8358" stop-color="#EAEAEA"/><stop offset="1" stop-color="#E5E5E5"/></linearGradient><path d="M31 20.56C31.31 22.01 30.88 23.33 30.05 23.51 29.21 23.69 28.28 22.66 27.97 21.22 27.66 19.77 28.09 18.45 28.93 18.27 29.75 18.08 30.69 19.11 31 20.56Z" fill="url(#SVGID_48_)"/><g><radialGradient cx="-291.108" cy="-5.3625" r="5.5923" gradientUnits="userSpaceOnUse" id="SVGID_49_" gradientTransform="matrix(0.9955 -0.0951 0.0951 0.9955 321.465 0.9756)"><stop offset="0.2327" stop-color="#366480"/><stop offset="1" stop-color="#1DAECE"/></radialGradient><radialGradient cx="-291.919" cy="-6.0908" r="3.712" gradientUnits="userSpaceOnUse" id="SVGID_50_" gradientTransform="matrix(0.9955 -0.0951 0.0951 0.9955 321.465 0.9756)"><stop offset="0.2462" stop-color="#054C57"/><stop offset="1" stop-color="#195E38"/></radialGradient><linearGradient x1="-309.814" y1="-57.5459" x2="-311.432" y2="-57.4176" gradientUnits="userSpaceOnUse" id="SVGID_51_" gradientTransform="matrix(0.9968 -0.0803 0.0803 0.9968 342.807 53.0459)"><stop offset="0" stop-color="#FFFFFF"/><stop offset="0.8358" stop-color="#EAEAEA"/><stop offset="1" stop-color="#E5E5E5"/></linearGradient><path d="M30.34 20.87C30.58 21.99 30.25 23.02 29.6 23.16 28.95 23.3 28.22 22.5 27.98 21.38 27.74 20.26 28.07 19.23 28.72 19.09 29.37 18.95 30.1 19.75 30.34 20.87Z" fill="url(#SVGID_49_)"/><path d="M29.74 21.05C29.9 21.8 29.68 22.47 29.25 22.57 28.82 22.66 28.34 22.13 28.18 21.39 28.02 20.64 28.24 19.96 28.67 19.87 29.1 19.77 29.58 20.3 29.74 21.05Z" fill="url(#SVGID_50_)"/><path d="M28.92 20.66C28.97 21.1 28.79 21.49 28.54 21.51 28.28 21.54 28.04 21.2 27.99 20.76 27.94 20.32 28.11 19.93 28.37 19.91 28.63 19.88 28.88 20.22 28.92 20.66Z" fill="url(#SVGID_51_)"/></g></g></g><path d="M18.9 17.98C18.9 17.98 17.65 17.27 16.43 18.02 16.43 18.02 16.63 16.93 17.94 17.06 18.93 17.17 18.9 17.98 18.9 17.98Z" fill="#521200"/><path d="M29.52 16.21C29.52 16.21 28.17 15.72 27.1 16.67 27.1 16.67 27.11 15.56 28.43 15.47 29.41 15.4 29.52 16.21 29.52 16.21Z" fill="#521200"/><g><radialGradient cx="-51.1371" cy="175.18" r="4.5336" gradientUnits="userSpaceOnUse" id="SVGID_52_" gradientTransform="matrix(0.7597 -0.6502 0.6502 0.7597 -50.0645 -141.411)"><stop offset="0" stop-color="#FFFFFF"/><stop offset="0.2126" stop-color="#F9EEEA"/><stop offset="0.6509" stop-color="#EAC2B3"/><stop offset="0.7485" stop-color="#E6B8A6"/><stop offset="0.8142" stop-color="#E4B2A0"/><stop offset="0.9033" stop-color="#DEA18F"/><stop offset="1" stop-color="#D48774"/></radialGradient><defs><filter id="Adobe_OpacityMaskFilter" x="22.33" y="24.43" width="1.09" height="1.09" filterUnits="userSpaceOnUse" primitiveUnits="userSpaceOnUse"><feFlood flood-color="#FFFFFF" result="back"/><feBlend in="SourceGraphic" in2="back" mode="normal"/></filter></defs><mask maskUnits="userSpaceOnUse" x="22.33" y="24.43" width="1.09" height="1.09" id="SVGID_53_"><g filter="url(#Adobe_OpacityMaskFilter)"><defs><filter id="Adobe_OpacityMaskFilter_1_" x="22.33" y="24.43" width="1.09" height="1.09" filterUnits="userSpaceOnUse" primitiveUnits="userSpaceOnUse"><feFlood flood-color="#FFFFFF" result="back"/><feBlend in="SourceGraphic" in2="back" mode="normal"/></filter></defs><mask maskUnits="userSpaceOnUse" x="22.33" y="24.43" width="1.09" height="1.09" id="SVGID_53_"><g filter="url(#Adobe_OpacityMaskFilter_1_)"></g></mask><radialGradient cx="22.3974" cy="24.571" r="2.3701" gradientUnits="userSpaceOnUse" id="SVGID_54_"><stop offset="0" stop-color="#FFFFFF"/><stop offset="0.0858" stop-color="#F4F4F4"/><stop offset="0.2353" stop-color="#D8D8D8"/><stop offset="0.4306" stop-color="#A9A9A9"/><stop offset="0.6642" stop-color="#696969"/><stop offset="0.9275" stop-color="#181818"/><stop offset="1"/></radialGradient><path d="M23.42 24.98C23.42 25.28 23.18 25.53 22.87 25.53 22.57 25.53 22.32 25.28 22.32 24.98 22.32 24.68 22.56 24.43 22.87 24.43 23.18 24.43 23.42 24.68 23.42 24.98Z" fill="url(#SVGID_54_)" mask="url(#SVGID_53_)"/></g></mask><radialGradient cx="22.3974" cy="24.571" r="2.3701" gradientUnits="userSpaceOnUse" id="SVGID_55_"><stop offset="0" stop-color="#FFFFFF"/><stop offset="1" stop-color="#FFFFFF"/></radialGradient><path d="M24.42 26.11C22.83 27.29 21.44 25.7 22.15 24.68 22.82 23.71 23.74 24.4 23.74 24.4 23.67 24.35 23.49 24.36 23.41 24.35 23.18 24.33 22.95 24.34 22.74 24.43 21.91 24.8 22.15 25.85 22.85 26.21 23.08 26.33 23.37 26.35 23.62 26.3 24.41 26.13 24.42 26.11 24.42 26.11Z" fill="url(#SVGID_52_)"/><path d="M23.42 24.98C23.42 25.28 23.18 25.53 22.87 25.53 22.57 25.53 22.32 25.28 22.32 24.98 22.32 24.68 22.56 24.43 22.87 24.43 23.18 24.43 23.42 24.68 23.42 24.98Z" fill="url(#SVGID_55_)" opacity="0.7"/></g><g><linearGradient x1="28.0222" y1="30.9206" x2="30.1886" y2="34.0653" gradientUnits="userSpaceOnUse" id="SVGID_56_"><stop offset="0.1146" stop-color="#E75667"/><stop offset="1" stop-color="#CA1A18"/></linearGradient><linearGradient x1="26.8817" y1="29.3312" x2="26.7854" y2="23.9724" gradientUnits="userSpaceOnUse" id="SVGID_57_"><stop offset="0" stop-color="#FFFFFF"/><stop offset="0.8358" stop-color="#EAEAEA"/><stop offset="1" stop-color="#E5E5E5"/></linearGradient><linearGradient x1="20.1396" y1="29.966" x2="31.2138" y2="29.966" gradientUnits="userSpaceOnUse" id="SVGID_58_"><stop offset="0.1146" stop-color="#E75667"/><stop offset="1" stop-color="#420D00"/></linearGradient><path d="M26.47 32.96C26.55 32.96 26.63 32.96 26.7 32.95 28.26 32.84 29.64 31.82 30.45 30.15 27.41 30.41 26.66 32.11 26.47 32.96Z" fill="url(#SVGID_56_)"/><path d="M26.46 29.95C28.76 29.24 30.33 27.96 31.21 26.97 31.23 26.65 31.23 26.31 31.21 25.97 28.3 28.76 24.75 29.13 22.47 29.01 23.03 29.62 24.32 30.61 26.46 29.95Z" fill="url(#SVGID_57_)"/><path d="M26.46 29.95C24.31 30.61 23.03 29.62 22.48 29.01 21.07 28.93 20.14 28.67 20.14 28.67 22.04 30.07 23.98 32.96 26.47 32.96 26.66 32.11 27.41 30.42 30.45 30.15 30.88 29.26 31.15 28.19 31.21 26.97 30.33 27.96 28.76 29.24 26.46 29.95Z" fill="url(#SVGID_58_)"/></g><path d="M28.27 30.83C27.87 30.97 27.33 31.41 27.31 31.68 27.25 32.52 28.76 31.57 28.69 30.95 28.67 30.76 28.49 30.75 28.27 30.83Z" fill="url(#SVGID_59_)"/></g><path d="M41.34 21.01C42.04 20.68 42.35 21.45 42.35 21.45 42.16 21.25 41.79 21.01 41.26 21.45 41.07 21.6 41 21.88 41 22.17 41.4 23 41.95 22.27 41.95 22.27 41.95 22.27 41.9 22.86 41.37 22.89 41.22 22.9 41.12 22.85 41.05 22.78 41.1 23.09 41.17 23.32 41.17 23.32 40.68 22.95 40.64 21.34 41.34 21.01Z" fill="url(#SVGID_60_)"/><g><linearGradient x1="37.5678" y1="16.285" x2="42.9102" y2="16.285" gradientUnits="userSpaceOnUse" id="SVGID_61_"><stop offset="0" stop-color="#D5458A"/><stop offset="1" stop-color="#ED6887"/></linearGradient><radialGradient cx="40.5792" cy="16.6436" r="0.7127" gradientUnits="userSpaceOnUse" id="SVGID_62_"><stop offset="0.1622" stop-color="#F9BA0F"/><stop offset="1" stop-color="#F49910"/></radialGradient><path d="M39.58 15.46C39.58 15.46 38.92 13.82 39.77 13.4 40.74 13.13 41.01 14.73 40.92 15.37 41.88 14.57 42.82 15.07 42.91 15.72 42.98 16.23 42.51 16.94 41.58 17.03 42.49 17.8 42.26 18.78 41.53 18.95 40.81 19.11 40.2 18.04 40.2 17.78 40.04 19.07 38.87 19.49 38.31 19 37.75 18.51 38.29 17.41 39.18 17.15 37.43 16.85 37.47 15.82 37.71 15.42 37.92 15.02 39.11 15.04 39.58 15.46Z" fill="url(#SVGID_61_)"/><path d="M40.8 16.67C40.8 16.95 40.59 17.17 40.32 17.17 40.05 17.17 39.84 16.95 39.84 16.67 39.84 16.39 40.05 16.17 40.32 16.17 40.58 16.17 40.8 16.39 40.8 16.67Z" fill="url(#SVGID_62_)"/></g><path d="M9.38 37.09C9.38 37.09 8.94 36.14 7.68 35.47 6.43 34.79 4.43 33.37 3.78 33.84 3.14 34.31 3.71 35.91 3.71 35.91 3.71 35.91 2.83 37.57 4.22 38.49 4.25 39.2 4.59 39.54 4.59 39.54 4.59 39.54 4.62 40.32 5.34 40.25 6.05 40.18 7.81 40.53 8.51 39.02 9.2 37.5 9.38 37.09 9.38 37.09Z" fill="url(#SVGID_63_)"/><path d="M7.16 43.77 6.05 36.23C5.85 36.06 5.68 35.86 5.59 35.64 5.52 35.48 5.44 35.25 5.53 35.08 5.61 34.94 5.72 34.87 5.83 34.78L3.75 20.61C3.71 20.36 3.49 20.19 3.24 20.23 2.99 20.27 2.83 20.49 2.86 20.74L4.95 34.91C5.57 35.32 6.17 36.75 5.45 37.17 5.73 37.35 5.66 37.82 5.46 38.18 5.55 38.37 5.56 38.57 5.51 38.76L5.62 39.49C5.68 39.58 5.72 39.66 5.71 39.75 5.71 39.8 5.69 39.84 5.67 39.88L6.26 43.88C6.3 44.13 6.52 44.3 6.77 44.26 7.03 44.24 7.2 44.01 7.16 43.77Z" fill="url(#SVGID_64_)"/><path d="M1.92 17.68C1.92 17.68 2.37 15.17 2.58 15.14 2.79 15.12 3.69 17.35 3.69 17.35 3.69 17.35 5.83 17.21 5.94 17.59 6.06 17.97 4.66 18.87 4.66 18.87 4.66 18.87 6.11 20.55 6.04 20.96 5.97 21.36 3.5 20.34 3.5 20.34 3.5 20.34 1.98 22.07 1.6 21.95 1.22 21.83 1.77 19.29 1.77 19.29 1.77 19.29-0.05 18.61 0 18.37 0.05 18.13 1.92 17.68 1.92 17.68Z" fill="url(#SVGID_65_)"/><g><radialGradient cx="6.9111" cy="36.6133" r="1.7215" gradientUnits="userSpaceOnUse" id="SVGID_66_"><stop offset="0" stop-color="#F9DCC4"/><stop offset="0.2951" stop-color="#EFD3BF"/><stop offset="0.6302" stop-color="#EACEBD"/><stop offset="0.7318" stop-color="#E7C6B4"/><stop offset="0.8979" stop-color="#DFB29B"/><stop offset="1" stop-color="#D9A289"/></radialGradient><radialGradient cx="4.805" cy="35.9257" r="1.2255" gradientUnits="userSpaceOnUse" id="SVGID_67_"><stop offset="0" stop-color="#F9DCC4"/><stop offset="0.2951" stop-color="#EFD3BF"/><stop offset="0.6302" stop-color="#EACEBD"/><stop offset="0.7318" stop-color="#E7C6B4"/><stop offset="0.8979" stop-color="#DFB29B"/><stop offset="1" stop-color="#D9A289"/></radialGradient><radialGradient cx="4.9683" cy="37.9112" r="0.783" gradientUnits="userSpaceOnUse" id="SVGID_68_"><stop offset="0" stop-color="#F9DCC4"/><stop offset="0.2951" stop-color="#EFD3BF"/><stop offset="0.6302" stop-color="#EACEBD"/><stop offset="0.7318" stop-color="#E7C6B4"/><stop offset="0.8979" stop-color="#DFB29B"/><stop offset="1" stop-color="#D9A289"/></radialGradient><radialGradient cx="5.0747" cy="38.9668" r="0.5984" gradientUnits="userSpaceOnUse" id="SVGID_69_"><stop offset="0" stop-color="#F9DCC4"/><stop offset="0.2951" stop-color="#EFD3BF"/><stop offset="0.6302" stop-color="#EACEBD"/><stop offset="0.7318" stop-color="#E7C6B4"/><stop offset="0.8979" stop-color="#DFB29B"/><stop offset="1" stop-color="#D9A289"/></radialGradient><radialGradient cx="5.587" cy="39.7376" r="0.3969" gradientUnits="userSpaceOnUse" id="SVGID_70_"><stop offset="0" stop-color="#F9DCC4"/><stop offset="0.2951" stop-color="#EFD3BF"/><stop offset="0.6302" stop-color="#EACEBD"/><stop offset="0.7318" stop-color="#E7C6B4"/><stop offset="0.8979" stop-color="#DFB29B"/><stop offset="1" stop-color="#D9A289"/></radialGradient><path d="M6.5 34.8C6.35 34.76 6.2 34.73 6.06 34.74 5.99 34.74 5.92 34.76 5.86 34.79 5.8 34.82 5.75 34.87 5.71 34.92 5.68 34.94 5.67 34.97 5.65 35L5.62 35.09 5.6 35.2 5.6 35.3C5.61 35.37 5.62 35.43 5.65 35.5 5.68 35.56 5.7 35.63 5.74 35.69 5.88 35.93 6.11 36.13 6.34 36.31 6.58 36.48 6.83 36.63 7.1 36.75L7.18 36.79 7.16 36.88C7.14 36.98 7.13 37.08 7.12 37.19 7.12 37.29 7.12 37.4 7.12 37.5 7.13 37.6 7.15 37.71 7.17 37.81 7.18 37.86 7.2 37.91 7.21 37.96L7.27 38.1C7.3 38.14 7.32 38.19 7.35 38.23 7.39 38.26 7.41 38.31 7.45 38.34 7.49 38.37 7.53 38.41 7.58 38.42 7.62 38.44 7.67 38.47 7.72 38.48L7.8 38.5 7.88 38.51C7.93 38.52 7.98 38.52 8.04 38.51 8.09 38.5 8.15 38.51 8.2 38.49L8.36 38.46 8.21 38.52C8.16 38.54 8.1 38.55 8.05 38.56 8 38.57 7.94 38.58 7.88 38.58L7.79 38.58 7.71 38.57C7.65 38.56 7.6 38.55 7.54 38.52 7.48 38.5 7.44 38.46 7.39 38.43 7.34 38.4 7.3 38.35 7.26 38.31 7.22 38.27 7.19 38.22 7.15 38.17 7.13 38.1 7.11 38.05 7.08 38 7.06 37.95 7.04 37.89 7.02 37.84 6.98 37.73 6.96 37.62 6.94 37.5 6.93 37.39 6.92 37.27 6.92 37.16 6.92 37.05 6.94 36.93 6.96 36.82L7.02 36.94C6.73 36.82 6.46 36.67 6.21 36.48 6.09 36.38 5.96 36.28 5.86 36.17 5.75 36.05 5.65 35.93 5.58 35.79 5.54 35.72 5.51 35.64 5.49 35.56 5.47 35.48 5.45 35.4 5.45 35.31 5.45 35.27 5.45 35.22 5.46 35.18L5.49 35.07C5.51 35.02 5.53 34.99 5.54 34.95 5.56 34.92 5.58 34.88 5.61 34.85 5.67 34.79 5.74 34.74 5.82 34.71 5.9 34.68 5.98 34.67 6.06 34.68 6.22 34.68 6.37 34.73 6.5 34.8Z" fill="url(#SVGID_66_)"/><path d="M3.75 35.93C3.75 35.93 3.8 35.99 3.9 36.11 3.99 36.22 4.13 36.38 4.31 36.56 4.49 36.73 4.7 36.94 4.97 37.05 5.03 37.08 5.1 37.09 5.17 37.1 5.2 37.1 5.24 37.11 5.26 37.1 5.29 37.09 5.35 37.09 5.37 37.07 5.47 37.03 5.57 36.9 5.61 36.76 5.66 36.62 5.66 36.46 5.65 36.31 5.63 36.16 5.59 36.01 5.53 35.87 5.48 35.73 5.4 35.6 5.33 35.48 5.25 35.36 5.18 35.25 5.1 35.16 5.02 35.06 4.94 34.98 4.88 34.91 4.81 34.83 4.75 34.77 4.69 34.73 4.58 34.63 4.52 34.57 4.52 34.57 4.52 34.57 4.59 34.61 4.72 34.69 4.78 34.73 4.86 34.78 4.94 34.85 5 34.9 5.1 34.97 5.19 35.06 5.29 35.15 5.37 35.26 5.47 35.37 5.56 35.49 5.64 35.62 5.71 35.78 5.78 35.93 5.83 36.1 5.86 36.27 5.88 36.45 5.88 36.63 5.82 36.81 5.75 36.99 5.65 37.16 5.44 37.25 5.39 37.28 5.36 37.27 5.31 37.29 5.25 37.31 5.21 37.29 5.16 37.29 5.07 37.28 4.98 37.25 4.9 37.21 4.74 37.14 4.62 37.03 4.51 36.93 4.4 36.83 4.31 36.72 4.23 36.62 3.89 36.23 3.75 35.93 3.75 35.93Z" fill="url(#SVGID_67_)"/><path d="M4.22 38.48C4.22 38.48 4.26 38.49 4.33 38.51 4.37 38.52 4.41 38.53 4.46 38.54 4.51 38.54 4.56 38.56 4.62 38.56 4.68 38.56 4.74 38.57 4.81 38.56 4.88 38.56 4.94 38.54 5.01 38.52 5.08 38.51 5.14 38.46 5.2 38.43 5.22 38.42 5.26 38.39 5.29 38.37 5.31 38.34 5.33 38.33 5.35 38.3 5.39 38.25 5.43 38.19 5.45 38.12 5.48 38.05 5.49 37.98 5.51 37.91 5.52 37.84 5.53 37.77 5.53 37.7 5.53 37.63 5.53 37.57 5.53 37.51 5.52 37.27 5.5 37.1 5.5 37.1 5.5 37.1 5.6 37.24 5.66 37.49 5.69 37.62 5.71 37.77 5.7 37.93 5.69 38.01 5.68 38.1 5.65 38.19 5.62 38.28 5.58 38.36 5.52 38.44 5.49 38.48 5.45 38.52 5.41 38.55 5.37 38.58 5.35 38.6 5.3 38.62 5.21 38.65 5.13 38.7 5.05 38.71 4.96 38.73 4.88 38.74 4.8 38.72 4.72 38.72 4.65 38.7 4.59 38.68 4.53 38.67 4.47 38.64 4.43 38.61 4.38 38.59 4.34 38.56 4.31 38.54 4.25 38.51 4.22 38.48 4.22 38.48Z" fill="url(#SVGID_68_)"/><path d="M4.54 39.51C4.54 39.51 4.57 39.51 4.62 39.51 4.67 39.51 4.75 39.5 4.83 39.49 4.91 39.48 5.01 39.45 5.09 39.4 5.13 39.38 5.16 39.34 5.2 39.31 5.23 39.27 5.27 39.24 5.29 39.19L5.33 39.12 5.36 39.05C5.38 39 5.4 38.95 5.41 38.9 5.42 38.85 5.44 38.8 5.44 38.75 5.45 38.7 5.45 38.65 5.46 38.61 5.47 38.52 5.48 38.45 5.49 38.39 5.5 38.34 5.51 38.31 5.51 38.31 5.51 38.31 5.52 38.34 5.54 38.39 5.56 38.44 5.58 38.52 5.59 38.61 5.6 38.7 5.62 38.81 5.6 38.93 5.6 38.99 5.59 39.05 5.57 39.12L5.54 39.21 5.49 39.3C5.46 39.36 5.4 39.41 5.36 39.46 5.3 39.5 5.25 39.54 5.18 39.57 5.12 39.61 5.06 39.61 5 39.62 4.94 39.62 4.89 39.62 4.84 39.62 4.74 39.61 4.67 39.58 4.62 39.56 4.57 39.53 4.54 39.51 4.54 39.51Z" fill="url(#SVGID_69_)"/><path d="M5.4 39.23C5.4 39.23 5.49 39.25 5.59 39.33 5.69 39.41 5.82 39.55 5.84 39.76 5.84 39.81 5.84 39.86 5.82 39.91 5.81 39.96 5.77 40 5.75 40.04 5.69 40.11 5.62 40.16 5.56 40.18 5.5 40.21 5.44 40.22 5.41 40.22 5.37 40.23 5.35 40.23 5.35 40.23 5.35 40.23 5.36 40.21 5.39 40.18 5.41 40.15 5.45 40.12 5.49 40.07 5.51 40.05 5.53 40.03 5.54 40 5.55 39.98 5.57 39.95 5.59 39.92 5.6 39.89 5.61 39.87 5.62 39.84 5.63 39.81 5.63 39.78 5.63 39.76 5.63 39.64 5.56 39.51 5.51 39.4 5.43 39.31 5.4 39.23 5.4 39.23Z" fill="url(#SVGID_70_)"/></g><g opacity="0.5"><radialGradient cx="27.1707" cy="55.0467" r="32.17" gradientUnits="userSpaceOnUse" id="SVGID_71_"><stop offset="0" stop-color="#00C277"/><stop offset="1" stop-color="#00748C"/></radialGradient><path d="M50.11 45.78C51.15 45.29 51.38 43.95 50.11 43.69 48.84 43.43 50 42.87 50.37 42.16 50.74 41.45 49.75 41.43 47.96 41.71 46.17 41.99 44.38 42.05 42.25 43.89 42.25 43.89 42.19 46.07 40.18 48.65 37.44 51.73 33.97 51.56 31.73 51.06 29.04 51.62 28.86 52.19 27.38 52.9 25.9 53.61 25.6 53.9 25.6 53.9 25.6 53.9 25.59 53.98 25.58 54.13 27.27 53.19 30.29 51.64 31.55 51.79 33.34 52.01 38.38 53.02 41.18 48.65 43.98 44.28 49.97 46.13 48.02 46.73 46.07 47.33 47.02 47.98 48.72 48.93 50.42 49.88 48.72 51.48 46.37 51.68 45.18 51.78 45.54 53.46 45.49 55.21 45.57 54.92 45.64 54.6 45.72 54.22 46.03 52.71 46.78 52.4 47.99 52.48 49.19 52.56 49.74 52.08 50.18 50.92 50.63 49.76 50.55 49.02 49.62 48.08 48.69 47.16 49.06 46.26 50.11 45.78Z" fill="url(#SVGID_71_)"/></g><path d="M8.69 8.66C8.69 8.66 8.85 10.44 11.44 9.47 14.03 8.5 15.17 7.36 18.24 4.45 21.32 1.53 25.26 0.4 27.31 0.4 23.91 1.32 21.82 1.47 16.57 7.1 12.52 11.46 7.77 11.63 8.69 8.66Z" fill="url(#SVGID_72_)"/><g><radialGradient cx="25.5436" cy="21.8154" r="14.6063" gradientUnits="userSpaceOnUse" id="SVGID_73_"><stop offset="0" stop-color="#F9DCC4"/><stop offset="0.2951" stop-color="#EFD3BF"/><stop offset="0.6302" stop-color="#EACEBD"/><stop offset="0.7318" stop-color="#E7C6B4"/><stop offset="0.8979" stop-color="#DFB29B"/><stop offset="1" stop-color="#D9A289"/></radialGradient><radialGradient cx="25.5472" cy="21.8153" r="14.6024" gradientUnits="userSpaceOnUse" id="SVGID_74_"><stop offset="0" stop-color="#FFFFFF"/><stop offset="0.2126" stop-color="#F9EEEA"/><stop offset="0.6509" stop-color="#EAC2B3"/><stop offset="0.7485" stop-color="#E6B8A6"/><stop offset="0.8142" stop-color="#E4B2A0"/><stop offset="0.9033" stop-color="#DEA18F"/><stop offset="1" stop-color="#D48774"/></radialGradient><path d="M37.66 22.05C36.98 22.01 36.31 21.6 35.83 20.95 35.92 20.96 36.01 20.95 36.09 20.95 35.9 20.89 35.69 20.78 35.47 20.62 35.62 21.91 36.57 22.27 37.66 22.05Z" fill="none"/><path d="M39.25 21.36C38.73 21.7 38.18 21.94 37.67 22.04 38.22 22.08 38.78 21.88 39.25 21.36Z" fill="url(#SVGID_73_)"/><path d="M30.05 11.81C30.26 13.2 32.06 14.91 34.39 16.4 36.62 17.83 37.99 20.83 36.1 20.94 37.25 21.32 37.75 20.09 37.05 18.74 36.23 17.17 35.41 16.8 33.39 15.31 31.37 13.82 30.33 11.88 30.26 10.68 29.29 13.22 23.83 16.36 19.49 16.07 16.12 15.93 14.39 14.86 14.66 13.29 14.66 13.29 13.52 14.38 13.7 16.52 13.77 15.7 13.96 14.86 14.42 14.28 14.92 16.28 24.06 19.25 30.05 11.81Z" fill="url(#SVGID_74_)"/></g><g opacity="0.5"><radialGradient cx="35.768" cy="40.9749" r="17.121" gradientUnits="userSpaceOnUse" id="SVGID_75_"><stop offset="0" stop-color="#00C277"/><stop offset="1" stop-color="#00748C"/></radialGradient><path d="M38.62 41.25C36.45 40.32 33.37 38.21 33.37 38.21 31.44 40.14 31.16 43.78 31.16 43.78 31.16 43.78 29.76 41.76 26.74 40.08 26.21 40.78 25.98 41.94 25.89 42.75 25.9 42.78 25.91 42.81 25.92 42.84 26.02 42.27 26.27 41.53 26.82 40.63 29.44 42.06 31.35 44.38 31.35 44.38 31.35 44.38 31.35 41.4 33.37 38.72 33.37 38.72 34.59 40.6 36.08 41.38 38.96 42.9 37.67 44.19 39.22 44.73 40.28 45.1 42.1 45.42 40.85 47.71 42.21 45.57 42.26 43.89 42.26 43.89 40.71 43.1 39.63 42.93 38.62 41.25Z" fill="url(#SVGID_75_)"/></g><g><radialGradient cx="19.5008" cy="57.2009" r="16.0562" gradientUnits="userSpaceOnUse" id="SVGID_76_"><stop offset="0" stop-color="#47FFF0"/><stop offset="1" stop-color="#00A0E4"/></radialGradient><radialGradient cx="19.5009" cy="57.2009" r="16.0555" gradientUnits="userSpaceOnUse" id="SVGID_77_"><stop offset="0" stop-color="#47FFF0"/><stop offset="1" stop-color="#00A0E4"/></radialGradient><radialGradient cx="19.4988" cy="57.1998" r="16.0572" gradientUnits="userSpaceOnUse" id="SVGID_78_"><stop offset="0" stop-color="#47FFF0"/><stop offset="1" stop-color="#00A0E4"/></radialGradient><radialGradient cx="19.5014" cy="57.2147" r="16.0695" gradientUnits="userSpaceOnUse" id="SVGID_79_"><stop offset="0" stop-color="#47FFF0"/><stop offset="1" stop-color="#00A0E4"/></radialGradient><radialGradient cx="19.5005" cy="57.201" r="16.0565" gradientUnits="userSpaceOnUse" id="SVGID_80_"><stop offset="0" stop-color="#47FFF0"/><stop offset="1" stop-color="#00A0E4"/></radialGradient><radialGradient cx="19.5023" cy="57.2015" r="16.045" gradientUnits="userSpaceOnUse" id="SVGID_81_"><stop offset="0" stop-color="#47FFF0"/><stop offset="1" stop-color="#00A0E4"/></radialGradient><radialGradient cx="19.5085" cy="57.2023" r="16.0447" gradientUnits="userSpaceOnUse" id="SVGID_82_"><stop offset="0" stop-color="#47FFF0"/><stop offset="1" stop-color="#00A0E4"/></radialGradient><path d="M26.41 44.12C26.41 44.12 26.27 44.25 26.03 44.49 25.91 44.61 25.76 44.74 25.6 44.92 25.44 45.09 25.26 45.28 25.06 45.48 24.86 45.69 24.66 45.92 24.44 46.16 24.22 46.4 23.99 46.66 23.76 46.94 23.53 47.21 23.29 47.5 23.05 47.78 22.8 48.06 22.58 48.38 22.35 48.68 22.12 48.98 21.88 49.28 21.65 49.58 21.43 49.88 21.22 50.19 21.02 50.48 20.82 50.78 20.61 51.05 20.42 51.32 20.22 51.58 20.07 51.86 19.91 52.09 19.61 52.58 19.34 52.97 19.16 53.25 18.97 53.53 18.87 53.69 18.87 53.69 18.87 53.69 18.96 53.52 19.12 53.23 19.29 52.94 19.51 52.52 19.8 52.02 19.95 51.77 20.09 51.49 20.28 51.22 20.46 50.94 20.65 50.65 20.86 50.36 21.06 50.06 21.27 49.75 21.49 49.44 21.72 49.14 21.95 48.83 22.19 48.53 22.43 48.23 22.65 47.92 22.91 47.64 23.16 47.35 23.4 47.07 23.64 46.8 23.87 46.52 24.12 46.28 24.35 46.04 24.58 45.8 24.8 45.58 25 45.38 25.21 45.18 25.4 45 25.58 44.84 25.75 44.68 25.91 44.55 26.03 44.44 26.25 44.23 26.41 44.12 26.41 44.12Z" fill="url(#SVGID_76_)"/><path d="M18.78 50.05C18.78 50.05 18.98 49.99 19.29 49.91 19.44 49.87 19.62 49.82 19.8 49.77 19.99 49.72 20.19 49.67 20.38 49.6 20.58 49.54 20.77 49.48 20.95 49.41 21.04 49.38 21.13 49.34 21.21 49.31 21.29 49.27 21.37 49.24 21.44 49.21 21.58 49.14 21.7 49.09 21.77 49.04 21.85 49 21.9 48.97 21.9 48.97 21.9 48.97 21.86 49.01 21.8 49.08 21.74 49.15 21.63 49.23 21.5 49.33 21.37 49.42 21.2 49.51 21.02 49.6 20.93 49.64 20.83 49.68 20.74 49.72 20.64 49.75 20.54 49.79 20.44 49.82 20.23 49.88 20.03 49.93 19.83 49.96 19.63 50 19.45 50.02 19.29 50.03 18.99 50.07 18.78 50.05 18.78 50.05Z" fill="url(#SVGID_77_)"/><path d="M23.74 46.85C23.74 46.85 23.78 47.14 23.81 47.59 23.82 47.81 23.82 48.07 23.82 48.35 23.82 48.63 23.8 48.93 23.78 49.22 23.75 49.52 23.72 49.81 23.67 50.09 23.62 50.36 23.57 50.62 23.52 50.84 23.46 51.06 23.4 51.23 23.36 51.36 23.32 51.48 23.29 51.55 23.29 51.55 23.29 51.55 23.3 51.48 23.31 51.35 23.33 51.22 23.35 51.04 23.39 50.82 23.41 50.6 23.44 50.34 23.47 50.07 23.49 49.93 23.49 49.79 23.51 49.65 23.52 49.51 23.54 49.36 23.55 49.21 23.59 48.62 23.64 48.04 23.67 47.59 23.71 47.14 23.74 46.85 23.74 46.85Z" fill="url(#SVGID_78_)"/><path d="M22.7 44.48C22.7 44.48 22.75 44.47 22.85 44.47 22.94 44.46 23.07 44.46 23.23 44.45 23.39 44.44 23.57 44.44 23.77 44.44 23.97 44.44 24.18 44.44 24.39 44.44 24.6 44.45 24.81 44.44 25.01 44.44 25.21 44.45 25.39 44.43 25.55 44.44 25.71 44.44 25.84 44.42 25.93 44.42 26.02 44.41 26.08 44.41 26.08 44.41 26.08 44.41 26.03 44.43 25.94 44.46 25.9 44.47 25.84 44.49 25.78 44.51 25.72 44.53 25.65 44.55 25.57 44.56 25.41 44.59 25.23 44.63 25.03 44.63 24.83 44.64 24.62 44.66 24.4 44.66 24.19 44.66 23.98 44.65 23.78 44.64 23.58 44.63 23.4 44.61 23.24 44.58 23.08 44.56 22.95 44.53 22.86 44.52 22.76 44.5 22.7 44.48 22.7 44.48Z" fill="url(#SVGID_79_)"/><path d="M17.31 55.54C17.31 55.54 17.53 55.56 17.92 55.5 18.02 55.49 18.12 55.47 18.23 55.44 18.34 55.41 18.47 55.39 18.59 55.34 18.72 55.3 18.85 55.25 19 55.2 19.14 55.14 19.29 55.08 19.44 55.01 19.6 54.95 19.74 54.86 19.9 54.78 20.06 54.7 20.22 54.61 20.38 54.51 20.54 54.41 20.71 54.3 20.87 54.2 21.03 54.08 21.2 53.96 21.37 53.84 21.71 53.61 22.03 53.32 22.37 53.04 22.54 52.91 22.7 52.75 22.86 52.6 23.02 52.45 23.18 52.3 23.34 52.14 23.66 51.84 23.96 51.5 24.26 51.19L24.48 50.95C24.55 50.87 24.62 50.79 24.69 50.7 24.83 50.54 24.97 50.38 25.1 50.22 25.23 50.06 25.37 49.91 25.5 49.75 25.62 49.59 25.75 49.44 25.86 49.29 26.1 48.99 26.32 48.7 26.52 48.44 26.73 48.18 26.9 47.92 27.06 47.71 27.22 47.49 27.36 47.3 27.47 47.14 27.7 46.83 27.83 46.65 27.83 46.65 27.83 46.65 27.71 46.84 27.5 47.17 27.39 47.33 27.27 47.53 27.12 47.76 26.97 47.99 26.82 48.25 26.62 48.52 26.42 48.79 26.21 49.08 25.98 49.39 25.87 49.54 25.75 49.7 25.63 49.87 25.5 50.03 25.37 50.18 25.24 50.35 25.11 50.51 24.97 50.68 24.83 50.84 24.76 50.92 24.69 51.01 24.62 51.09 24.55 51.17 24.47 51.25 24.4 51.33 24.1 51.65 23.8 51.99 23.48 52.3 23.32 52.45 23.15 52.6 22.99 52.76 22.83 52.91 22.67 53.07 22.49 53.2 22.14 53.48 21.82 53.76 21.47 53.99 21.3 54.11 21.13 54.23 20.96 54.34 20.79 54.44 20.61 54.54 20.45 54.64 20.29 54.74 20.12 54.82 19.95 54.9 19.78 54.97 19.63 55.06 19.47 55.12 19.31 55.18 19.16 55.24 19.02 55.29 18.87 55.33 18.73 55.37 18.6 55.41 18.47 55.45 18.34 55.46 18.22 55.49 18.1 55.51 18 55.53 17.9 55.53 17.7 55.55 17.55 55.55 17.45 55.54 17.36 55.55 17.31 55.54 17.31 55.54Z" fill="url(#SVGID_80_)"/><path d="M21.76 53.66C21.76 53.66 21.81 53.82 21.83 54.07 21.85 54.19 21.85 54.34 21.84 54.49 21.84 54.64 21.81 54.81 21.8 54.97 21.78 55.05 21.76 55.13 21.75 55.21 21.73 55.29 21.71 55.37 21.69 55.44 21.66 55.51 21.63 55.58 21.61 55.65 21.58 55.72 21.56 55.78 21.53 55.83 21.4 56.04 21.29 56.17 21.29 56.17 21.29 56.17 21.33 56 21.41 55.78 21.43 55.72 21.44 55.66 21.45 55.59 21.47 55.52 21.48 55.45 21.5 55.38 21.52 55.31 21.52 55.23 21.54 55.16 21.56 55.08 21.57 55.01 21.58 54.93 21.59 54.85 21.6 54.77 21.61 54.69 21.62 54.61 21.64 54.54 21.64 54.46 21.66 54.31 21.68 54.17 21.69 54.05 21.73 53.83 21.76 53.66 21.76 53.66Z" fill="url(#SVGID_81_)"/><path d="M26.52 48.65C26.52 48.65 26.65 48.86 26.79 49.19 26.86 49.36 26.92 49.56 26.98 49.78 27.04 50 27.08 50.24 27.11 50.48 27.13 50.72 27.15 50.97 27.13 51.2 27.13 51.31 27.12 51.42 27.1 51.53 27.09 51.63 27.07 51.73 27.05 51.82 27.02 51.92 27 52 26.98 52.07 26.96 52.14 26.93 52.2 26.92 52.25 26.88 52.35 26.86 52.41 26.86 52.41 26.86 52.41 26.86 52.35 26.88 52.24 26.89 52.19 26.89 52.13 26.9 52.05 26.9 51.98 26.91 51.89 26.91 51.81 26.92 51.72 26.92 51.63 26.92 51.52 26.92 51.42 26.92 51.31 26.92 51.2 26.92 51.09 26.91 50.98 26.91 50.86 26.91 50.74 26.89 50.63 26.88 50.51 26.87 50.39 26.85 50.28 26.84 50.16 26.82 50.04 26.8 49.93 26.79 49.82 26.75 49.6 26.71 49.4 26.67 49.23 26.63 49.06 26.6 48.91 26.57 48.81 26.53 48.71 26.52 48.65 26.52 48.65Z" fill="url(#SVGID_82_)"/></g></g></svg>