<svg width="2500.14" height="2500" viewBox="0 0 2500.14 2500" xmlns="http://www.w3.org/2000/svg" xmlns:xlink="http://www.w3.org/1999/xlink" overflow="hidden"><defs></defs><g><path d="M1513.31 1296.66 1513.31 1024.07 986.67 1024.07 986.67 1296.65C986.67 1581.03 906.66 1854.64 799.98 2118.25 777.39 2174.07 764.94 2235.08 764.94 2299.07 764.94 2433.01 1007.46 2499.99 1249.98 2499.99 1492.51 2499.99 1735.04 2433.02 1735.04 2299.07 1735.04 2235.08 1722.59 2174.08 1700 2118.27 1593.33 1854.66 1513.31 1581.05 1513.31 1296.66Z" fill="#EFCDBB"/><path d="M1493.69 1375.94 1493.69 1149.79 1056.76 1149.79 1056.76 1375.94C1056.76 1611.88 990.38 1838.88 901.87 2057.59 883.13 2103.9 872.8 2154.52 872.8 2207.61 872.8 2318.74 1074.01 2374.3 1275.22 2374.3 1476.44 2374.3 1677.66 2318.74 1677.66 2207.61 1677.66 2154.52 1667.33 2103.91 1648.59 2057.61 1560.08 1838.88 1493.69 1611.88 1493.69 1375.94Z" fill="#FFEADE"/><path d="M1734.84 2298.94C1734.84 2322.9 1727.55 2344.25 1713.48 2363.52 1381.71 2270.81 1099.94 2059.35 917.13 1777.59 960.36 1621.34 986.92 1460.92 986.92 1296.87L986.92 1023.96 1513.48 1023.96 1513.48 1296.87C1513.48 1581.24 1593.17 1854.68 1699.93 2118.22 1722.34 2173.94 1734.84 2234.88 1734.84 2298.94Z" fill="#FFFFFF" opacity="0.25"/><path d="M1316.69 1928.9C1327.35 1986.89 1343.08 2045.04 1372.93 2092.21 1402.77 2139.37 1448.85 2174.23 1496.92 2172.4 1520.35 2171.51 1544.49 2160.93 1558.58 2138.18 1570.11 2119.56 1573.68 2095.04 1573.66 2071.4 1573.6 2012.81 1553.8 1956.5 1530.36 1904.94 1506.92 1853.38 1479.37 1804.24 1461.39 1749.56 1428.07 1648.24 1430.01 1536.34 1424.13 1427.88 1422.16 1391.59 1407.98 1334.14 1368.97 1356.69 1343.62 1371.35 1340.34 1417.2 1332.73 1446.95 1307.43 1545.86 1295.94 1650.35 1298.65 1754.62 1300.16 1813.14 1306.15 1871.59 1316.69 1928.9Z" fill="#FFFFFF" opacity="0.25"/><path d="M2343.95 1277.19C2450.1 1252.91 2516.05 1146.92 2496.58 1039.78 2389.15 448.52 1872.59 0.02 1250.32 0.02 626.61 0.02 109.11 450.58 3.31 1043.85-15.48 1149.23 47.34 1254.2 151.22 1280.05 866.65 1458.09 1598.36 1447.75 2343.95 1277.19Z" fill="#E82323"/><path d="M2292.75 1155.76C2385.84 1134.46 2443.68 1041.51 2426.61 947.55 2332.39 429.01 1879.36 35.67 1333.63 35.67 786.63 35.67 332.78 430.82 239.99 951.12 223.51 1043.54 278.6 1135.6 369.71 1158.27 997.14 1314.4 1638.86 1305.34 2292.75 1155.76Z" fill="#FF3333"/><g><path d="M2043.93 1190.1C2043.93 1209.71 2027.89 1225.75 2008.28 1225.75 1988.67 1225.75 1972.62 1209.71 1972.62 1190.1 1972.62 1170.49 1988.66 1154.44 2008.28 1154.44 2027.88 1154.44 2043.93 1170.48 2043.93 1190.1Z" fill="#FCF2F0"/><path d="M1657.08 1281.39C1657.08 1301 1641.04 1317.04 1621.43 1317.04 1601.82 1317.04 1585.77 1301 1585.77 1281.39 1585.77 1261.78 1601.81 1245.73 1621.43 1245.73 1641.04 1245.73 1657.08 1261.78 1657.08 1281.39Z" fill="#FCF2F0"/><path d="M1077.7 1190.1C1077.7 1209.71 1061.66 1225.75 1042.05 1225.75 1022.44 1225.75 1006.39 1209.71 1006.39 1190.1 1006.39 1170.49 1022.43 1154.44 1042.05 1154.44 1061.66 1154.44 1077.7 1170.48 1077.7 1190.1Z" fill="#FCF2F0"/><path d="M1376.77 1307.35C1376.77 1326.96 1360.73 1343 1341.12 1343 1321.51 1343 1305.46 1326.96 1305.46 1307.35 1305.46 1287.74 1321.5 1271.69 1341.12 1271.69 1360.73 1271.7 1376.77 1287.74 1376.77 1307.35Z" fill="#FCF2F0"/><path d="M464.09 1225.75C464.09 1245.36 448.05 1261.4 428.44 1261.4 408.83 1261.4 392.78 1245.36 392.78 1225.75 392.78 1206.14 408.82 1190.09 428.44 1190.09 448.04 1190.1 464.09 1206.14 464.09 1225.75Z" fill="#FCF2F0"/><path d="M326.12 818.94C326.12 838.55 310.08 854.59 290.47 854.59 270.86 854.59 254.81 838.55 254.81 818.94 254.81 799.33 270.85 783.28 290.47 783.28 310.08 783.28 326.12 799.32 326.12 818.94Z" fill="#FCF2F0"/><path d="M858.88 1219.5C858.88 1239.11 842.84 1255.15 823.23 1255.15 803.62 1255.15 787.57 1239.11 787.57 1219.5 787.57 1199.89 803.61 1183.84 823.23 1183.84 842.83 1183.85 858.88 1199.89 858.88 1219.5Z" fill="#FCF2F0"/><path d="M221.56 1110.02C221.56 1129.63 205.52 1145.67 185.91 1145.67 166.3 1145.67 150.25 1129.63 150.25 1110.02 150.25 1090.41 166.29 1074.36 185.91 1074.36 205.52 1074.37 221.56 1090.41 221.56 1110.02Z" fill="#FCF2F0"/><path d="M1561.74 925.55C1561.74 945.16 1545.7 961.2 1526.09 961.2 1506.48 961.2 1490.43 945.16 1490.43 925.55 1490.43 905.94 1506.47 889.89 1526.09 889.89 1545.69 889.89 1561.74 905.93 1561.74 925.55Z" fill="#FCF2F0"/><path d="M1285.64 1024.08C1285.64 1043.69 1269.6 1059.73 1249.99 1059.73 1230.38 1059.73 1214.33 1043.69 1214.33 1024.08 1214.33 1004.47 1230.37 988.42 1249.99 988.42 1269.6 988.42 1285.64 1004.47 1285.64 1024.08Z" fill="#FCF2F0"/><path d="M1227.44 757.29C1227.44 776.9 1211.4 792.94 1191.79 792.94 1172.18 792.94 1156.13 776.9 1156.13 757.29 1156.13 737.68 1172.17 721.63 1191.79 721.63 1211.4 721.63 1227.44 737.68 1227.44 757.29Z" fill="#FCF2F0"/><path d="M1943.29 864.25C1943.29 883.86 1927.25 899.9 1907.64 899.9 1888.03 899.9 1871.98 883.86 1871.98 864.25 1871.98 844.64 1888.02 828.59 1907.64 828.59 1927.25 828.6 1943.29 844.64 1943.29 864.25Z" fill="#FCF2F0"/><path d="M2140.79 697.4C2140.79 717.01 2124.75 733.05 2105.14 733.05 2085.53 733.05 2069.48 717.01 2069.48 697.4 2069.48 677.79 2085.52 661.74 2105.14 661.74 2124.75 661.74 2140.79 677.78 2140.79 697.4Z" fill="#FCF2F0"/><path d="M1490.43 636.85C1490.43 656.46 1474.39 672.5 1454.78 672.5 1435.17 672.5 1419.12 656.46 1419.12 636.85 1419.12 617.24 1435.16 601.19 1454.78 601.19 1474.38 601.2 1490.43 617.24 1490.43 636.85Z" fill="#FCF2F0"/><path d="M987.72 792.94C987.72 812.55 971.68 828.59 952.07 828.59 932.46 828.59 916.41 812.55 916.41 792.94 916.41 773.33 932.45 757.28 952.07 757.28 971.67 757.29 987.72 773.33 987.72 792.94Z" fill="#FCF2F0"/><path d="M1058.35 245.04C1058.35 264.65 1042.31 280.69 1022.7 280.69 1003.09 280.69 987.04 264.65 987.04 245.04 987.04 225.43 1003.08 209.38 1022.7 209.38 1042.31 209.38 1058.35 225.43 1058.35 245.04Z" fill="#FCF2F0"/><path d="M1191.79 464.26C1191.79 483.87 1175.75 499.91 1156.14 499.91 1136.53 499.91 1120.48 483.87 1120.48 464.26 1120.48 444.65 1136.52 428.6 1156.14 428.6 1175.75 428.6 1191.79 444.65 1191.79 464.26Z" fill="#FCF2F0"/><path d="M561.39 661.74C561.39 681.35 545.35 697.39 525.74 697.39 506.13 697.39 490.08 681.35 490.08 661.74 490.08 642.13 506.12 626.08 525.74 626.08 545.35 626.09 561.39 642.13 561.39 661.74Z" fill="#FCF2F0"/><path d="M632.7 280.69C632.7 300.3 616.66 316.34 597.05 316.34 577.44 316.34 561.39 300.3 561.39 280.69 561.39 261.08 577.43 245.03 597.05 245.03 616.65 245.04 632.7 261.08 632.7 280.69Z" fill="#FCF2F0"/><path d="M1692.74 338.22C1692.74 357.83 1676.7 373.87 1657.09 373.87 1637.48 373.87 1621.43 357.83 1621.43 338.22 1621.43 318.61 1637.47 302.56 1657.09 302.56 1676.69 302.57 1692.74 318.61 1692.74 338.22Z" fill="#FCF2F0"/><path d="M1792.57 1096.91C1792.57 1128.55 1766.68 1154.44 1735.04 1154.44 1703.39 1154.44 1677.5 1128.55 1677.5 1096.91 1677.5 1065.26 1703.39 1039.37 1735.04 1039.37 1766.69 1039.38 1792.57 1065.27 1792.57 1096.91Z" fill="#FCF2F0"/><path d="M1907.63 579.32C1907.63 610.96 1881.74 636.85 1850.1 636.85 1818.45 636.85 1792.56 610.96 1792.56 579.32 1792.56 547.67 1818.45 521.78 1850.1 521.78 1881.75 521.79 1907.63 547.68 1907.63 579.32Z" fill="#FCF2F0"/><path d="M916.41 521.79C916.41 553.43 890.52 579.32 858.88 579.32 827.23 579.32 801.34 553.43 801.34 521.79 801.34 490.14 827.23 464.25 858.88 464.25 890.52 464.26 916.41 490.15 916.41 521.79Z" fill="#FCF2F0"/><path d="M670.54 979.32C670.54 1010.96 644.65 1036.85 613.01 1036.85 581.36 1036.85 555.47 1010.96 555.47 979.32 555.47 947.67 581.36 921.78 613.01 921.78 644.65 921.78 670.54 947.67 670.54 979.32Z" fill="#FCF2F0"/><path d="M1448.4 302.57C1448.4 334.21 1422.51 360.1 1390.87 360.1 1359.22 360.1 1333.33 334.21 1333.33 302.57 1333.33 270.92 1359.22 245.03 1390.87 245.03 1422.51 245.04 1448.4 270.92 1448.4 302.57Z" fill="#FCF2F0"/><path d="M2246.45 921.79C2246.45 953.43 2220.56 979.32 2188.92 979.32 2157.27 979.32 2131.38 953.43 2131.38 921.79 2131.38 890.14 2157.27 864.25 2188.92 864.25 2220.56 864.25 2246.45 890.14 2246.45 921.79Z" fill="#FCF2F0"/></g><path d="M2344.21 1277.07C1954.63 1366.13 1569.22 1411.96 1187.45 1409.36 1123.91 1357.8 1061.93 1301.55 1002.03 1241.13 708.81 944.79 523.91 596.87 462.45 275 678.07 102.61 952.03 0 1250.47 0 1872.34 0 2389 448.43 2496.81 1039.58 2516.08 1146.87 2449.94 1253.12 2344.21 1277.07Z" fill="#FFFFFF" opacity="0.15"/><path d="M2018.58 376.84C1965.62 323.65 1905.07 275.01 1830.75 251.49 1756.43 227.97 1666.06 232.98 1596.3 279.79 1562.29 302.61 1533.47 336.63 1527.28 374.52 1522.22 405.54 1532.7 435.56 1547.9 461.27 1585.6 524.99 1650.97 567.83 1718.66 602.11 1786.35 636.39 1858.55 664.2 1920.19 706.96 2034.41 786.19 2103.38 909.82 2181.68 1022.41 2207.88 1060.08 2265.7 1109.4 2308.79 1048.48 2336.79 1008.89 2312.19 955.91 2304.32 916.44 2278.16 785.18 2228.02 660.72 2157.08 549.74 2117.29 487.45 2070.92 429.41 2018.58 376.84Z" fill="#FFFFFF" opacity="0.15"/><path d="M1513.45 2262.94C1492.07 2284.32 1460.41 2287.2 1442.73 2269.52 1425.05 2251.84 1427.52 2219.77 1448.9 2198.39 1469.87 2177.42 1501.94 2174.95 1519.62 2192.63 1537.31 2210.31 1534.42 2241.97 1513.45 2262.94Z" fill="#FFFFFF"/><path d="M1568.1 2130.32C1537.46 2160.96 1492.09 2165.09 1466.75 2139.75 1441.41 2114.41 1444.95 2068.45 1475.59 2037.81 1505.64 2007.76 1551.61 2004.22 1576.95 2029.56 1602.29 2054.9 1598.16 2100.27 1568.1 2130.32Z" fill="#FFFFFF"/><path d="M1395.81 2210.1C1384.72 2221.19 1368.28 2222.69 1359.11 2213.51 1349.93 2204.33 1351.22 2187.69 1362.31 2176.6 1373.19 2165.72 1389.84 2164.44 1399.01 2173.61 1408.18 2182.78 1406.7 2199.22 1395.81 2210.1Z" fill="#FFFFFF"/></g></svg>